<svg id="f32f681a-c2f1-45da-bb5c-3d0581828981" data-name="圖層 3" xmlns="http://www.w3.org/2000/svg" xmlns:xlink="http://www.w3.org/1999/xlink" viewBox="0 0 155.53 150.3"><defs><style>.f401c2a2-4f4c-490f-af9c-08d63f1e9da1{fill:url(#eb30e7d1-6908-4943-b447-4b2af489f076);}.bbb48c26-363c-40db-a268-ff6cec090a73{fill:url(#b563d0a0-f20b-47a7-abb8-f15a368d9b88);}.a7193963-bcac-4caf-92e0-f4a7643cb06e{fill:url(#b1d34a53-eed7-4b2b-a9d9-a546188a8469);}.f931c07e-fc14-45c5-8535-dfd80a2b99e5{fill:url(#abbe824d-d7d8-485b-87bf-7576a7cfcc10);}.e4a8b212-674e-4038-a5e1-5d8f0b3df3da{fill:url(#b3eeaf57-90ae-4c0f-8ac7-16e1327fe62f);}.e5e268f6-93fc-4978-8910-30cdc64932c3{fill:#fff;}.fec58bbe-afe1-4470-afea-ea4026a8f7b1{fill:#f29440;stroke-linejoin:round;stroke-width:2px;}.be4546b3-c7f3-4015-8246-705fb2514f61,.fec58bbe-afe1-4470-afea-ea4026a8f7b1{stroke:#f29440;}.bcb1fdba-69e0-48f5-8c3c-041a2b2d1f73,.be4546b3-c7f3-4015-8246-705fb2514f61,.fec58bbe-afe1-4470-afea-ea4026a8f7b1{stroke-linecap:round;}.fd5a22c0-e643-454f-9b20-3e27a64bf5f9{fill:#454c53;}.bcb1fdba-69e0-48f5-8c3c-041a2b2d1f73,.be4546b3-c7f3-4015-8246-705fb2514f61{fill:none;stroke-miterlimit:10;}.bcb1fdba-69e0-48f5-8c3c-041a2b2d1f73{stroke:#454c53;stroke-width:3px;}.ed32f71f-6db4-4285-a968-635b2f1b1ae0{fill:#ffea8a;}.a32696b7-26f2-4ecd-816e-c4ff846035ec{fill:url(#ff426fed-3837-4202-a948-e9b066c09f51);}.be4546b3-c7f3-4015-8246-705fb2514f61{stroke-width:0.75px;}</style><linearGradient id="eb30e7d1-6908-4943-b447-4b2af489f076" x1="-4.17" y1="173.81" x2="-4.57" y2="173.31" gradientTransform="matrix(23.86, 0, 0, -28.47, 172.89, 4961.36)" gradientUnits="userSpaceOnUse"><stop offset="0" stop-color="#666c72"/><stop offset="1" stop-color="#454c53"/></linearGradient><linearGradient id="b563d0a0-f20b-47a7-abb8-f15a368d9b88" x1="-8.61" y1="174.84" x2="-8.56" y2="174.41" gradientTransform="matrix(45.01, 0, 0, -32.28, 501.02, 5783.87)" gradientUnits="userSpaceOnUse"><stop offset="0" stop-color="#f27746"/><stop offset="1" stop-color="#f29440"/></linearGradient><linearGradient id="b1d34a53-eed7-4b2b-a9d9-a546188a8469" x1="-6.26" y1="177.51" x2="-6.18" y2="177.2" gradientTransform="matrix(30.63, 0, 0, -44.45, 258.48, 8037.68)" xlink:href="#b563d0a0-f20b-47a7-abb8-f15a368d9b88"/><linearGradient id="abbe824d-d7d8-485b-87bf-7576a7cfcc10" x1="-12.41" y1="182.03" x2="-11.41" y2="182.03" gradientTransform="matrix(137.62, 0, 0, -99.26, 1732.95, 18150.76)" gradientUnits="userSpaceOnUse"><stop offset="0" stop-color="#ffe363"/><stop offset="1" stop-color="#ffcb05"/></linearGradient><linearGradient id="b3eeaf57-90ae-4c0f-8ac7-16e1327fe62f" x1="-8.89" y1="177.41" x2="-7.89" y2="177.41" gradientTransform="matrix(42.76, 0, 0, -42.63, 472.45, 7663.86)" gradientUnits="userSpaceOnUse"><stop offset="0" stop-color="#f27f44"/><stop offset="1" stop-color="#f29440"/></linearGradient><linearGradient id="ff426fed-3837-4202-a948-e9b066c09f51" x1="-55.58" y1="158.6" x2="-54.58" y2="158.6" gradientTransform="matrix(12.82, 0, 0, -12.82, -2.33, 2142.11)" gradientUnits="userSpaceOnUse"><stop offset="0" stop-color="#ffcb05"/><stop offset="0.58" stop-color="#ffea8a"/></linearGradient></defs><g id="a59c200e-38fa-4774-9cb2-9eee9c052481" data-name="Group 501"><path id="ace181a7-36fb-4320-ab65-046360ba0fc1" data-name="Path 623" class="f401c2a2-4f4c-490f-af9c-08d63f1e9da1" d="M62.32,37.38a8.68,8.68,0,0,1,1.76-.17,7.65,7.65,0,0,1,4.14,1.12c6-6.44,13-14.24,12.81-18.7-.17-5.3-2.61-6.44-4.89-5.31-5.15,2.55-6.71,7.08-8.2,12.17a22.53,22.53,0,0,0-.86,2.38,94.24,94.24,0,0,0-.6-13.64c-.58-4.34-3.65-7.66-7.22-3.41-4,4.83-1.26,13.48.47,18.63C60.11,31.57,61.32,34.88,62.32,37.38Z" transform="translate(-6.74 -9.85)"/><g id="ac7485d2-59af-4ea7-80e8-126c6fefb6c9" data-name="Group 496"><g id="b28680a7-4cff-4ba8-8897-a515729d211b" data-name="Group 495"><path id="eb127931-743c-4cad-85c2-813159641c06" data-name="Path 624" class="bbb48c26-363c-40db-a268-ff6cec090a73" d="M130.55,131.31a35,35,0,0,0-11.31,5.34A125.63,125.63,0,0,0,90.3,124.33c-.8-.24-1.5,1-.68,1.39a207.21,207.21,0,0,1,26.83,16.11,48.79,48.79,0,0,0,.77,12.24c.87,3.72,5.72,3.08,6.33-.41.47-2.69-.48-6-.76-8.7,0-.26-.05-.51-.07-.76l1.61,1.3c1.51,1.24,3,2.85,4.81,3.64,2.91,1.3,4.55-2.54,3.12-4.63-1.08-1.57-3.59-2.33-5.25-3.11-1.08-.5-2.18-1-3.29-1.48a43.39,43.39,0,0,0,8.79-2.7C135.83,135.86,134,130.5,130.55,131.31Z" transform="translate(-6.74 -9.85)"/></g><path id="ea1afca1-3c33-49ba-8676-d6ec75b2af1b" data-name="Path 625" class="a7193963-bcac-4caf-92e0-f4a7643cb06e" d="M69.4,157.54c.27-2-.49-4.37-.83-6.35-.27-1.58-.45-3.26-.78-4.89C72,136.7,77.4,127.62,78.67,117c.16-1.35-2-1.91-2.36-.57-2.86,9.29-8.24,17.46-12.88,25.92-1.94-.67-3.91-1.25-5.86-1.9-1.36-.44-2.72-.91-4-1.48-.3-.13-1.2-.38-1.91-.57a2.71,2.71,0,0,0-.93-.23h0c-2.81-.1-3.89,5-.59,6.47A47.51,47.51,0,0,0,58,147.15c-1.08.78-2.13,1.59-3.15,2.3-1.33.94-2.92,1.82-3.48,3.43a3.12,3.12,0,0,0,4,4.1,2.55,2.55,0,0,0,1-.68c.84-.69,1.42-1.56,2.15-2.26,1.41-1.36,3.12-2.67,4.65-4.11,0,.25,0,.51,0,.75a46.87,46.87,0,0,0,.27,7,3,3,0,0,0,6-.15Z" transform="translate(-6.74 -9.85)"/></g><path id="b34f87e7-d8a0-4269-a40c-4621376cd0f7" data-name="Path 626" class="f931c07e-fc14-45c5-8535-dfd80a2b99e5" d="M159.77,58.75a2.55,2.55,0,0,0-3.6,0,2.46,2.46,0,0,0-.39.51c-1.59,3.65-3,7.31-4.84,10.85A16.29,16.29,0,0,0,149.69,58c-1.54-2.83-5.38-1.84-6.35.83a53.48,53.48,0,0,1-4.3,9.81A15.6,15.6,0,0,0,137.33,59c-1.54-2.83-5.38-1.84-6.35.83a54.07,54.07,0,0,1-6.15,12.51c-12.49,18.65-23.21,6.51-23.21,6.51S105.05,33.14,60,33.77s-53,79.93,11.09,97c19.34,5.15,45.73,1.37,60.22-10C154.8,102.38,168.1,68.53,159.77,58.75Z" transform="translate(-6.74 -9.85)"/><path id="aace0f40-1d47-4ba4-a505-3899252dbbcb" data-name="Path 627" class="e4a8b212-674e-4038-a5e1-5d8f0b3df3da" d="M94.56,99.9c6.54-12.35,32.51-2.48,40.06-19.77,0,0,2.65,23.41-9,32.86s-20.92,12.88-28.18,6.54C90.67,113.59,91.11,106.41,94.56,99.9Z" transform="translate(-6.74 -9.85)"/><path id="f12a4717-d7c7-4832-ac6d-1256c2fcf744" data-name="Path 628" class="e5e268f6-93fc-4978-8910-30cdc64932c3" d="M128.94,93.18c2.38,0,2.38,4.73,0,4.73C124.18,97.91,124.18,93.18,128.94,93.18Z" transform="translate(-6.74 -9.85)"/><path id="bb19faca-6a1d-4e14-95e1-4b1495b1bdab" data-name="Path 629" class="e5e268f6-93fc-4978-8910-30cdc64932c3" d="M127.75,101.26c2.38,0,2.38,4.56,0,4.56C124.18,105.82,124.18,101.26,127.75,101.26Z" transform="translate(-6.74 -9.85)"/><path id="af25a96e-4a64-48ba-bf51-77f7981cdb8e" data-name="Path 630" class="e5e268f6-93fc-4978-8910-30cdc64932c3" d="M119.42,106.64a3.44,3.44,0,1,1,.23,6.88h-.23a3.44,3.44,0,0,1-.24-6.88A1,1,0,0,1,119.42,106.64Z" transform="translate(-6.74 -9.85)"/><path id="a9117175-1bea-41ca-a027-6831512175a8" data-name="Path 631" class="e5e268f6-93fc-4978-8910-30cdc64932c3" d="M117,96.05c3.57,0,3.57,6.74,0,6.74a3.38,3.38,0,1,1-.39-6.74Z" transform="translate(-6.74 -9.85)"/><path id="f34e5f7f-cf41-421a-9a2f-1b4ef5e0d326" data-name="Path 632" class="e5e268f6-93fc-4978-8910-30cdc64932c3" d="M107.51,95.3c2.38,0,2.38,6.3,0,6.3C101.56,101.6,101.56,95.3,107.51,95.3Z" transform="translate(-6.74 -9.85)"/><path id="a852b012-5407-479c-a124-0e3f6e698f8c" data-name="Path 633" class="e5e268f6-93fc-4978-8910-30cdc64932c3" d="M111.08,103.76c2.39,0,2.39,5.86,0,5.86C107.51,109.62,107.51,103.76,111.08,103.76Z" transform="translate(-6.74 -9.85)"/><path id="a37e2d11-a98d-4073-a2c4-9bfa9881d76a" data-name="Path 634" class="e5e268f6-93fc-4978-8910-30cdc64932c3" d="M109.7,113.74a2.64,2.64,0,1,1-2.64,2.64h0A2.66,2.66,0,0,1,109.7,113.74Z" transform="translate(-6.74 -9.85)"/><path id="a5aeee25-f7cb-4190-889b-070927ad5f3f" data-name="Path 635" class="e5e268f6-93fc-4978-8910-30cdc64932c3" d="M101.56,112.84c4.76,0,4.76,6.1,0,6.1C98,118.94,98,112.84,101.56,112.84Z" transform="translate(-6.74 -9.85)"/><path id="f60fa8a7-bfa0-4309-883a-197cd98e5ed2" data-name="Path 636" class="e5e268f6-93fc-4978-8910-30cdc64932c3" d="M98,101.91c6,0,6,5.68,0,5.68C95.61,107.59,95.61,101.91,98,101.91Z" transform="translate(-6.74 -9.85)"/><path id="aef4a485-cbb6-4b9e-9c3f-1c2b59386823" data-name="Path 637" class="fec58bbe-afe1-4470-afea-ea4026a8f7b1" d="M25.5,73.3c-4.34-1.16-17.76,1.54-17.76,1.54L21,82.13,17.1,88.82s8.79-3.16,11.34-5.49C30.56,81.4,31.78,75,25.5,73.3Z" transform="translate(-6.74 -9.85)"/><g id="fd3c0a08-72b4-4b7d-a4a9-55f8914046c9" data-name="Group 497"><path id="f1f8a209-f037-446d-90d4-7a965dc22b98" data-name="Path 638" class="fd5a22c0-e643-454f-9b20-3e27a64bf5f9" d="M57.46,59.34c-5.49,0-5.49,9,0,9a4.49,4.49,0,0,0,.65-9C57.89,59.33,57.68,59.33,57.46,59.34Z" transform="translate(-6.74 -9.85)"/></g><line id="fd8d7ff2-fafd-4837-b85c-21b25d3fa231" data-name="Line 130" class="bcb1fdba-69e0-48f5-8c3c-041a2b2d1f73" x1="44.88" y1="47.38" x2="57.32" y2="42.82"/><g id="f176223b-e038-46b6-9267-ebeef23e195c" data-name="Group 498"><path id="ab7b97db-3a78-4bdb-86ce-0d75f83f1b5f" data-name="Path 639" class="fd5a22c0-e643-454f-9b20-3e27a64bf5f9" d="M31.89,58.75c-5.49,0-5.49,9,0,9a4.49,4.49,0,0,0,.65-9A3.53,3.53,0,0,0,31.89,58.75Z" transform="translate(-6.74 -9.85)"/></g><line id="e441155e-7f67-4695-ac8c-86a60aa62f28" data-name="Line 131" class="bcb1fdba-69e0-48f5-8c3c-041a2b2d1f73" x1="32.35" y1="47.58" x2="19.85" y2="41.03"/><path id="b9891bbb-fbd0-4b76-943d-b84951da4eb9" data-name="Path 640" class="ed32f71f-6db4-4285-a968-635b2f1b1ae0" d="M28.67,95.67c6.21,15.31,19.84,29.07,42.46,35.1A69.28,69.28,0,0,0,84,132.83C78.49,109.75,52.2,90.83,28.67,95.67Z" transform="translate(-6.74 -9.85)"/><g id="f6332792-b56a-4c0d-90a4-11cc8cd20355" data-name="Group 500"><circle id="fee3e8e6-1e0e-48bf-8a5e-5bd0ff90e624" data-name="Ellipse 44" class="a32696b7-26f2-4ecd-816e-c4ff846035ec" cx="42.99" cy="109.55" r="6.41"/><g id="a03ce41d-beff-4724-affa-307b49432912" data-name="Group 499"><path id="aea22ce3-f514-444d-8f70-6aa2fec76a47" data-name="Path 641" class="be4546b3-c7f3-4015-8246-705fb2514f61" d="M46.09,121a4.73,4.73,0,0,0,5,0" transform="translate(-6.74 -9.85)"/><path id="fc56608c-7700-4863-8648-5b70e2674724" data-name="Path 642" class="be4546b3-c7f3-4015-8246-705fb2514f61" d="M48.17,118.54a4.71,4.71,0,0,0,1.2,4.88" transform="translate(-6.74 -9.85)"/></g></g></g></svg>