<svg id="fdb65319-c542-49e9-bf1e-409e775bc0cf" data-name="圖層 1" xmlns="http://www.w3.org/2000/svg" xmlns:xlink="http://www.w3.org/1999/xlink" viewBox="0 0 170 170"><defs><style>.b46217e3-9cb1-41ce-b7e9-adfc21eb6b8b{fill:url(#bdf65fc8-e513-4779-a3f4-04fc73a84201);}.e808937a-b613-48da-8af9-2ea7d842979e{fill:url(#f64f0057-2122-49aa-a22d-b5e2f0b2bea9);}.a93b1bae-08ff-40bb-ad52-3e037840339c{fill:url(#bb1dd407-373b-48a2-8ad1-1f8bfabd6abf);}.a87d6187-ec10-4ddd-80c4-795f54ea94c5,.bd301f05-33f9-4f81-bd85-293d10d2655c{fill:#f29440;}.a6a652f6-2f56-4a3e-aa42-29acfd3400b3,.bd301f05-33f9-4f81-bd85-293d10d2655c{stroke:#f29440;}.a6a652f6-2f56-4a3e-aa42-29acfd3400b3,.bd301f05-33f9-4f81-bd85-293d10d2655c,.e62ba0de-ce69-402e-b8e5-1fa94974772f{stroke-linecap:round;}.bd301f05-33f9-4f81-bd85-293d10d2655c{stroke-linejoin:round;stroke-width:2px;}.af818a82-9cdc-4707-83a1-759da9b401e2{fill:#454c53;}.a6a652f6-2f56-4a3e-aa42-29acfd3400b3,.e62ba0de-ce69-402e-b8e5-1fa94974772f{fill:none;stroke-miterlimit:10;}.e62ba0de-ce69-402e-b8e5-1fa94974772f{stroke:#454c53;stroke-width:3px;}.ba247bf5-a0e3-4c58-97b7-808c1ab35b1d{fill:url(#e7e46526-bf7f-4930-b961-b488270228e9);}.a6a652f6-2f56-4a3e-aa42-29acfd3400b3{stroke-width:0.75px;}.ebb520b4-5d15-4538-9a3f-5841c87d7102{fill:#ffea8a;}</style><linearGradient id="bdf65fc8-e513-4779-a3f4-04fc73a84201" x1="1.5" y1="177.07" x2="1.5" y2="176.67" gradientTransform="matrix(15.1, 0, 0, -38.33, 60.01, 6916.47)" gradientUnits="userSpaceOnUse"><stop offset="0" stop-color="#f26f40"/><stop offset="1" stop-color="#f29440"/></linearGradient><linearGradient id="f64f0057-2122-49aa-a22d-b5e2f0b2bea9" x1="-1.04" y1="176.17" x2="-1.04" y2="175.73" gradientTransform="matrix(18.17, 0, 0, -34.62, 124.94, 6229.1)" xlink:href="#bdf65fc8-e513-4779-a3f4-04fc73a84201"/><linearGradient id="bb1dd407-373b-48a2-8ad1-1f8bfabd6abf" x1="-11.33" y1="183.18" x2="-11.78" y2="182.47" gradientTransform="matrix(124.37, 0, 0, -127.2, 1529.61, 23324.72)" gradientUnits="userSpaceOnUse"><stop offset="0" stop-color="#ffe363"/><stop offset="1" stop-color="#ffcb05"/></linearGradient><linearGradient id="e7e46526-bf7f-4930-b961-b488270228e9" x1="0.99" y1="161.19" x2="1.99" y2="161.19" gradientTransform="matrix(13.96, 0, 0, -13.96, 94.3, 2363.21)" gradientUnits="userSpaceOnUse"><stop offset="0" stop-color="#ffcb05"/><stop offset="0.58" stop-color="#ffea8a"/></linearGradient></defs><g id="bb1e013e-d188-4bfb-a4fb-738eb854d6cc" data-name="Group 508"><g id="aa9c21c7-31ea-4571-92f5-9435931a1f9d" data-name="Group 502"><path id="e38cfce8-94e2-4409-9631-5dc8837bf443" data-name="Path 643" class="b46217e3-9cb1-41ce-b7e9-adfc21eb6b8b" d="M88.66,158.93c-1.64-1.14-3.7-1.76-5.45-2.74-.55-.3-1.1-.58-1.65-.86,1.11-3.4,1-8,1.37-11.25.63-5.47,1.43-11.23.56-16.71a1,1,0,0,0-1.22-.66,1,1,0,0,0-.65.66c-1,4.92-2,9.83-3.16,14.71-1,4-3.55,9.22-3.35,13.32a2.86,2.86,0,0,0,.17.86,2.38,2.38,0,0,0,.48,1.17,22.54,22.54,0,0,0,4.3,4.15c1.8,1.35,3.82,2.92,6.08,3.33a3.29,3.29,0,0,0,2.52-6Z"/><path id="ab894b63-63f7-4eae-9e36-1651bf1c2714" data-name="Path 644" class="e808937a-b613-48da-8af9-2ea7d842979e" d="M111.41,155.69a33.39,33.39,0,0,1-8.19-1.35c-.09-3-1-6.34-1.15-8.66a136.86,136.86,0,0,0-2.1-16.13c-.27-1.31-2.16-.93-2.23.3-.3,5.87-.46,11.73-.52,17.6,0,2.67-.68,6.43.1,9.33a2.45,2.45,0,0,0,.74,1.75,5.28,5.28,0,0,0,.81,1,2.11,2.11,0,0,0,1.4.59,21.51,21.51,0,0,0,11.14,3.22C116.37,163.45,116.32,155.92,111.41,155.69Z"/></g><path id="bb3f5264-b288-4a55-9641-e5824643f951" data-name="Path 645" class="a93b1bae-08ff-40bb-ad52-3e037840339c" d="M100,19.77A31.15,31.15,0,0,1,106.64,7a1.53,1.53,0,0,0,0-2.16,1.55,1.55,0,0,0-2.12,0,24.34,24.34,0,0,0-8,15.12c-.54.06-1.07.1-1.62.18-2.9-6.21-6.73-12.5-13-12a1.75,1.75,0,0,0-.87,3.24,35.33,35.33,0,0,1,5.24,3.69A25.16,25.16,0,0,1,90,20.66l.26.46C58.6,30.25,72.52,95.17,50.12,98.22a44.75,44.75,0,0,1-7,.43l-3.72-3a23.64,23.64,0,0,1-1.77-2.55C34.23,87.36,35,82.72,37.55,77a1.85,1.85,0,0,0-1.06-2.4,1.83,1.83,0,0,0-1.38,0A13,13,0,0,0,27.76,85,81.28,81.28,0,0,1,22,78.26c-1.39-1.83-3.9,0-3.25,1.94A39.94,39.94,0,0,0,24.1,90.67c-3.53-.61-7-.38-8.89,2.07a2,2,0,0,0,0,2.42c2.39,3.69,9.43,3.92,13.28,5.63.26.12.5.26.76.39,6.45,12,21.2,27.92,54.43,30.2,54.4,3.75,55.45-32.85,55.49-58.57C139.23,51.94,127.7,19.51,100,19.77Z"/><g id="baaf0ea2-791f-4b45-b370-c7a3d666aa33" data-name="Group 503"><path id="ae94bf22-fb61-4fe8-9fa4-efa75252499c" data-name="Path 646" class="a87d6187-ec10-4ddd-80c4-795f54ea94c5" d="M83.93,78.31A3.33,3.33,0,1,0,83.5,85h.43a3.33,3.33,0,1,0,.43-6.64A3.09,3.09,0,0,0,83.93,78.31Z"/><path id="fd93972f-33df-44e9-a0ac-857601a85ea5" data-name="Path 647" class="a87d6187-ec10-4ddd-80c4-795f54ea94c5" d="M93.36,78.81c-2.36,0-2.36,5.63,0,5.63C98.08,84.44,98.08,78.81,93.36,78.81Z"/><path id="e9bb2e9d-1c72-4f44-af12-3047b8bb1b22" data-name="Path 648" class="a87d6187-ec10-4ddd-80c4-795f54ea94c5" d="M106.3,80.93a2.93,2.93,0,1,0,2.92,2.93A3,3,0,0,0,106.3,80.93Z"/><path id="fc7751ee-b538-4896-bdf4-f953f61d3d04" data-name="Path 649" class="a87d6187-ec10-4ddd-80c4-795f54ea94c5" d="M107.39,96.2a1.85,1.85,0,0,0-1.57-1.56,2.75,2.75,0,0,0-2.95,4.51,2.75,2.75,0,0,0,4.52-3Z"/><path id="b64c3739-adb5-4c0a-8fe3-03325e3b367a" data-name="Path 650" class="a87d6187-ec10-4ddd-80c4-795f54ea94c5" d="M93.36,87.92c-2.36,0-2.36,5.22,0,5.22C98.08,93.14,98.08,87.92,93.36,87.92Z"/><path id="be10f4e2-fffa-456d-8b15-7db201f2c619" data-name="Path 651" class="a87d6187-ec10-4ddd-80c4-795f54ea94c5" d="M79.21,90.84c-2.36,0-2.36,5.32,0,5.32C83.93,96.16,83.93,90.84,79.21,90.84Z"/><path id="aec610b4-3c00-49f6-a950-da469670f347" data-name="Path 652" class="a87d6187-ec10-4ddd-80c4-795f54ea94c5" d="M89.82,99.1a3.31,3.31,0,0,0-.46,6.61,3.53,3.53,0,0,0,.46,0C93.36,105.71,93.36,99.1,89.82,99.1Z"/></g><path id="b53a6026-00a9-40f3-95c8-1fe0568b15d7" data-name="Path 653" class="bd301f05-33f9-4f81-bd85-293d10d2655c" d="M135.91,66.41c3.93-2.1,17.49-2.53,17.49-2.53l-11.19,10,5.32,5.56s-9.19-1.06-12.18-2.73C132.87,75.37,130.23,69.45,135.91,66.41Z"/><g id="b4d5ed50-9aad-4187-93b5-5abc513767e0" data-name="Group 504"><path id="b3b6c714-0270-4da6-94a5-38fb52bb37a9" data-name="Path 654" class="af818a82-9cdc-4707-83a1-759da9b401e2" d="M108.52,47.51c-5.44,0-5.44,8.87,0,8.87a4.45,4.45,0,1,0,.62-8.87A3.21,3.21,0,0,0,108.52,47.51Z"/></g><g id="e518c60f-369b-4437-90cf-dd2dbf32dcd1" data-name="Group 505"><path id="f369daa2-a30b-4b20-ab6c-26eeec320a3c" data-name="Path 655" class="af818a82-9cdc-4707-83a1-759da9b401e2" d="M135.64,48.69c-5.45,0-5.45,8.87,0,8.87a4.45,4.45,0,0,0,.62-8.87A3.21,3.21,0,0,0,135.64,48.69Z"/></g><line id="e7c72d17-8247-4998-83c1-4158422ead3a" data-name="Line 132" class="e62ba0de-ce69-402e-b8e5-1fa94974772f" x1="115.64" y1="46.21" x2="103.26" y2="39.72"/><line id="fe0f3170-2e48-49ed-b845-6af6e78d2de5" data-name="Line 133" class="e62ba0de-ce69-402e-b8e5-1fa94974772f" x1="129.84" y1="46.6" x2="142.17" y2="42.08"/><g id="b8d5e180-d455-4601-af26-227d04b37e14" data-name="Group 507"><circle id="b1e9d8e5-5cba-4017-b733-2f7087558ca0" data-name="Ellipse 45" class="ba247bf5-a0e3-4c58-97b7-808c1ab35b1d" cx="132.26" cy="113.02" r="6.98"/><g id="e2b0be94-82c8-4e42-87c6-b06ca81ca106" data-name="Group 506"><path id="f9879084-0aff-483c-98e6-4d44f5c4d877" data-name="Path 656" class="a6a652f6-2f56-4a3e-aa42-29acfd3400b3" d="M133.89,117a5.13,5.13,0,0,0,.21-5.47"/><path id="e9784e1e-4c4a-4b20-adcb-38795f123c92" data-name="Path 657" class="a6a652f6-2f56-4a3e-aa42-29acfd3400b3" d="M131.27,114.68a5.14,5.14,0,0,0,5.36-1.12"/></g></g><path id="eee7ef33-b15d-41ec-8bdf-f67fc629f3c7" data-name="Path 658" class="ebb520b4-5d15-4538-9a3f-5841c87d7102" d="M138.82,86.82c-18.27,5.23-28.54,24.2-29,42.54C132.33,123,137.59,104.51,138.82,86.82Z"/></g></svg>