<svg id="bb7f6198-0004-4ac3-af87-dfa7dfb46cab" data-name="圖層 1" xmlns="http://www.w3.org/2000/svg" xmlns:xlink="http://www.w3.org/1999/xlink" viewBox="0 0 220 220"><defs><style>.a63ce032-d9fa-4fd6-b0d4-c657b5a47cce,.aa37f47d-c8b9-44c7-923f-482aa66b16fc,.b9f0d727-79c7-4965-a5ef-01b62b05e70d,.e86ce401-ac99-40ac-8d67-6806c3d24662,.e9cf561f-4a03-44fe-a1ae-f9aa3cba51b9{fill:none;}.a8958e87-ee8f-43bd-b384-8e2fd3383ab8{fill:url(#ab101377-bac7-4261-b2a2-9f25a767ba38);}.a2991caf-4f34-426d-aa61-73f1c52a7c63{fill:url(#e9e524e9-c893-4bda-8e3d-95f1ad08d6fb);}.ae403ad6-3105-44db-a67d-9d2b51be7849{fill:url(#bb2cb9c4-ed55-4a0d-8224-15f34bf21f92);}.e343800c-1414-42b1-be7a-d99e45363fa6{fill:#c79be7;}.e29e351a-753d-45b4-8fd3-2f9c25cf2329{fill:url(#e15c3ef8-b267-41f5-b8e1-0a549cdae872);}.e1ec423b-ab9e-42a2-9a99-3e758b962861{fill:url(#e2683eea-1b4a-405c-9a5e-ee9d12641d3a);}.afd3211e-9c3a-4503-a478-ba2c4692d3ca,.e2fec3d5-22dd-4cd1-9785-9b12a7cdddb7{fill:#f29440;}.f0fe2030-6e13-49cd-ade2-24d2f74225a4{fill:#454c53;}.aa37f47d-c8b9-44c7-923f-482aa66b16fc{stroke:#454c53;stroke-width:3px;}.a63ce032-d9fa-4fd6-b0d4-c657b5a47cce,.aa37f47d-c8b9-44c7-923f-482aa66b16fc,.e2fec3d5-22dd-4cd1-9785-9b12a7cdddb7,.e9cf561f-4a03-44fe-a1ae-f9aa3cba51b9{stroke-linecap:round;}.a63ce032-d9fa-4fd6-b0d4-c657b5a47cce,.aa37f47d-c8b9-44c7-923f-482aa66b16fc,.ac08ab18-e1be-4bd7-9bb2-31706fe496c0,.e9cf561f-4a03-44fe-a1ae-f9aa3cba51b9{stroke-miterlimit:10;}.e2fec3d5-22dd-4cd1-9785-9b12a7cdddb7,.e9cf561f-4a03-44fe-a1ae-f9aa3cba51b9{stroke:#f29440;}.e2fec3d5-22dd-4cd1-9785-9b12a7cdddb7{stroke-linejoin:round;stroke-width:2px;}.adefc670-b83c-4cbb-b38a-6e50ab2b1935{clip-path:url(#ef2537b2-b997-4c0a-8403-b83300bfd811);}.b7adbd36-a4b8-471c-884a-de2d072d9183{fill:#ffea8a;}.aadd89c1-6220-4584-a366-fd07bc4c1712{fill:url(#adebfbe9-2f4f-4e3c-a84b-a2677b862199);}.e9cf561f-4a03-44fe-a1ae-f9aa3cba51b9{stroke-width:0.75px;}.ac08ab18-e1be-4bd7-9bb2-31706fe496c0{fill:#fff;opacity:0.35;isolation:isolate;}.a63ce032-d9fa-4fd6-b0d4-c657b5a47cce,.ac08ab18-e1be-4bd7-9bb2-31706fe496c0,.b9f0d727-79c7-4965-a5ef-01b62b05e70d{stroke:#fff;}.a63ce032-d9fa-4fd6-b0d4-c657b5a47cce,.b9f0d727-79c7-4965-a5ef-01b62b05e70d{stroke-width:5px;}</style><linearGradient id="ab101377-bac7-4261-b2a2-9f25a767ba38" x1="-30.84" y1="251.86" x2="-30.81" y2="251.48" gradientTransform="matrix(25.51, 0, 0, -36.29, 920.31, 9314.5)" gradientUnits="userSpaceOnUse"><stop offset="0" stop-color="#f26f40"/><stop offset="1" stop-color="#f29440"/></linearGradient><linearGradient id="e9e524e9-c893-4bda-8e3d-95f1ad08d6fb" x1="-31.95" y1="252.18" x2="-31.84" y2="251.49" gradientTransform="matrix(29.39, 0, 0, -35.65, 1092.22, 9150.7)" xlink:href="#ab101377-bac7-4261-b2a2-9f25a767ba38"/><linearGradient id="bb2cb9c4-ed55-4a0d-8224-15f34bf21f92" x1="-31.83" y1="251.94" x2="-32.23" y2="251.44" gradientTransform="matrix(30.18, 0, 0, -36, 1069.62, 9106.28)" gradientUnits="userSpaceOnUse"><stop offset="0" stop-color="#666c72"/><stop offset="1" stop-color="#454c53"/></linearGradient><linearGradient id="e15c3ef8-b267-41f5-b8e1-0a549cdae872" x1="-36.89" y1="253.66" x2="-36.67" y2="252.95" gradientTransform="matrix(115.81, 0, 0, -45.38, 4413.22, 11655.48)" gradientUnits="userSpaceOnUse"><stop offset="0" stop-color="#f2564d"/><stop offset="1" stop-color="#f29440"/></linearGradient><linearGradient id="e2683eea-1b4a-405c-9a5e-ee9d12641d3a" x1="-37.62" y1="258.02" x2="-37.17" y2="257.44" gradientTransform="matrix(163.76, 0, 0, -113.03, 6234.85, 29242.58)" gradientUnits="userSpaceOnUse"><stop offset="0" stop-color="#ffe363"/><stop offset="1" stop-color="#ffcb05"/></linearGradient><clipPath id="ef2537b2-b997-4c0a-8403-b83300bfd811"><path class="e86ce401-ac99-40ac-8d67-6806c3d24662" d="M207.69,115c2.7,22.41-23.25,50.82-70.08,61.24-36.92,8.21-79-9.15-90.67-41.45-10.69-29.6,9.44-74.81,53-69.06s38.24,60,53.86,51S204.66,89.86,207.69,115Z"/></clipPath><linearGradient id="adebfbe9-2f4f-4e3c-a84b-a2677b862199" x1="-76.99" y1="243.98" x2="-75.99" y2="243.98" gradientTransform="matrix(19.57, 0, 0, -19.57, 653.22, 4947.14)" gradientUnits="userSpaceOnUse"><stop offset="0" stop-color="#ffcb05"/><stop offset="0.58" stop-color="#ffea8a"/></linearGradient></defs><g id="ba74c38d-a134-4e12-8d3a-ddf81f594737" data-name="Group 236"><g id="a62d546d-cc15-4830-9926-fab5229ab6dc" data-name="Group 233"><g id="b1028aae-da22-420e-8e10-f3a64bfea606" data-name="Group 225"><path id="e88704c6-3171-45fc-be47-d583313c9c76" data-name="Path 385" class="a8958e87-ee8f-43bd-b384-8e2fd3383ab8" d="M123.87,166.81a52.49,52.49,0,0,0,3.34,12.8,25,25,0,0,0,3.63,6.26,7.51,7.51,0,0,0,3.85,2.4c.93-.4,1.91-.75,2.79-1.13,1.7-.73,3.7-2.64,5.6-2.32A2,2,0,0,1,144.8,187c0,2.2-2.82,3.61-4.7,4.29l.23.06c1.69.31,3.38-.4,5,0a1.74,1.74,0,0,1,1.48,2,1.79,1.79,0,0,1-.31.77c-2,2.92-6.78,1.8-9.89-.22a12.78,12.78,0,0,0,.93,1.45c1.12,1.49,2.84,2.32,4.26,3.46a2,2,0,0,1-1.42,3.54c-4.21-.6-7-5-7.46-9.07-3.91-.92-7.12-5.88-8.65-9-2.48-5.1-3.88-12.06-2.25-17.59C122.32,165.67,123.75,165.93,123.87,166.81Z"/><path id="e51c0f56-4e7a-4b43-bd2c-ed379a88aa94" data-name="Path 386" class="a2991caf-4f34-426d-aa61-73f1c52a7c63" d="M143.32,168.59c.22-.34.72-.08.69.28-.32,4.71,1.47,8.76,3.64,12.84,2.66,5,6.17,7.43,11.5,8.52l.1,0a7.39,7.39,0,0,0,2.71-1.18c1.43-1.05,2-2.86,3.43-4a1.86,1.86,0,0,1,3,1.19c.33,3-2,5.75-4.89,6.93,2.41.11,5-.53,7.07.63a1.76,1.76,0,0,1,.34,2.46h0c-1.83,2.26-5.87,2-8.79.37.91,1.23,2,2.25,3,3.44,1.86,2.25-1.2,5-3.46,3.49-2.76-1.84-4.59-5.68-5.13-9.18-4.63-.35-8.93-5.5-11-8.95C142.71,181.06,140.1,173.46,143.32,168.59Z"/></g><path id="b07db85d-c237-40e9-9861-16ee89f8b8f6" data-name="Path 387" class="ae403ad6-3105-44db-a67d-9d2b51be7849" d="M95.22,67.76a11.1,11.1,0,0,1,2.23-.22A9.73,9.73,0,0,1,102.68,69c7.59-8.15,16.39-18,16.2-23.65-.22-6.7-3.3-8.14-6.18-6.71-6.52,3.22-8.49,8.95-10.37,15.4a25.23,25.23,0,0,0-1.1,3,118.33,118.33,0,0,0-.76-17.25c-.73-5.49-4.61-9.69-9.12-4.32-5.12,6.11-1.6,17.05.59,23.57C92.42,60.42,94,64.6,95.22,67.76Z"/><path id="a9344e5d-4122-49fe-aac3-d7832a37025b" data-name="Path 388" class="e343800c-1414-42b1-be7a-d99e45363fa6" d="M87.81,29h-.1a2.39,2.39,0,0,1,.12-.22A1.36,1.36,0,0,0,87.81,29Z"/><g id="b82fc3a4-1c56-44d1-8879-bc1d01b5ad3a" data-name="Group 226"><path id="bd514eaa-0f56-4089-ad82-69c15e954110" data-name="Path 389" class="e29e351a-753d-45b4-8fd3-2f9c25cf2329" d="M162.86,136.38s63.3-7.4,40.28,20.56-65,27.48-102.3,18.38,60.35-38.94,60.35-38.94"/><path id="a3539df3-4496-4285-9ee5-e7c26471d9eb" data-name="Path 390" class="e1ec423b-ab9e-42a2-9a99-3e758b962861" d="M207.69,115c2.7,22.41-23.25,50.82-70.08,61.24-36.92,8.21-79-9.15-90.67-41.45-10.69-29.6,9.44-74.81,53-69.06s38.24,60,53.86,51S204.66,89.86,207.69,115Z"/><path id="ba078758-ef9e-4f37-8c35-046de6c3c8d2" data-name="Path 391" class="afd3211e-9c3a-4503-a478-ba2c4692d3ca" d="M152.59,154.2c-2.1-.49-4.82.09-6.9.63a1.71,1.71,0,0,0,0,3.29c2.08.54,4.8,1.12,6.9.63a2.38,2.38,0,0,0,0-4.55Z"/><path id="e441da3a-082c-4a12-9dfd-466e178adc65" data-name="Path 392" class="afd3211e-9c3a-4503-a478-ba2c4692d3ca" d="M146.14,143.62c-3,.21-5.62,1.37-8.65.91-1.25-.19-2.29,1.59-.94,2.23,3.1,1.47,7.48,2.58,10.64.74C148.91,146.51,148.26,143.48,146.14,143.62Z"/><path id="e14206f9-d669-43f6-a117-daafbced3e97" data-name="Path 393" class="afd3211e-9c3a-4503-a478-ba2c4692d3ca" d="M158.43,128.43c-1.67.9-2.74,2.69-4.59,3.31a1.46,1.46,0,0,0,0,2.8,7,7,0,0,0,7.78-2.91,2.35,2.35,0,0,0-3.19-3.2Z"/><path id="fec4fed7-006e-46bc-83cf-8ff01bfac41f" data-name="Path 394" class="afd3211e-9c3a-4503-a478-ba2c4692d3ca" d="M167.07,139.91a19.77,19.77,0,0,0-3,1.37,5.74,5.74,0,0,1-3.13.13c-1.73-.28-3.1,2.14-1.28,3,3,1.46,7.27,2.28,9.64-.71C170.68,142,169.46,139.33,167.07,139.91Z"/><path id="a5f39b9a-c317-4b05-bfdd-367a17151abb" data-name="Path 395" class="afd3211e-9c3a-4503-a478-ba2c4692d3ca" d="M170,152.5c-2.5.45-4.74,1.9-7.3,2.33-2.06.35-1.28,3.14.45,3.35a16,16,0,0,0,8.74-1.19C174.6,155.68,172.61,152.05,170,152.5Z"/><path id="b0a1ff4f-c533-4823-9456-54acca594887" data-name="Path 396" class="afd3211e-9c3a-4503-a478-ba2c4692d3ca" d="M186.41,132a18.05,18.05,0,0,1-2,3.15,13.23,13.23,0,0,1-1.46,1.44c-.32.27-.42.67-.67,1a2.44,2.44,0,0,1-.89.64c-1.43.78-.41,2.79,1.05,2.5.68-.13,1.35-.32,2-.4a5.72,5.72,0,0,0,2.87-1.63,8.91,8.91,0,0,0,3.13-5C191,131.37,187.61,129.71,186.41,132Z"/><path id="a9dffc94-1b45-4a11-94d7-a7afd79df22c" data-name="Path 397" class="afd3211e-9c3a-4503-a478-ba2c4692d3ca" d="M178.41,119.5c-.79,1.4-1.21,2.9-2.1,4.26s-2,2.67-2.77,4.12,1.26,3.23,2.41,1.86c2.36-2.8,6.3-5.14,6.43-9.17a2.14,2.14,0,0,0-4-1.07Z"/><path id="ebe2a2ea-b891-49ed-8ad4-3421ee4200fa" data-name="Path 398" class="afd3211e-9c3a-4503-a478-ba2c4692d3ca" d="M194.7,110.79c-3,.84-3.64,5.39-3.29,8,.18,1.42,2.47,2.09,2.76.37a8.59,8.59,0,0,1,1-2.87c.6-1.09,1.81-1.69,2.06-3a2.08,2.08,0,0,0-1.5-2.52A2.2,2.2,0,0,0,194.7,110.79Z"/></g><g id="eec75e25-2de7-43e6-9392-b732f981fda1" data-name="Group 227"><path id="ae3d3895-1b3b-43d2-bb11-2992d353e112" data-name="Path 399" class="f0fe2030-6e13-49cd-ade2-24d2f74225a4" d="M63.19,88.62c-6.95,0-6.95,11.32,0,11.32A5.67,5.67,0,1,0,64,88.62,5.21,5.21,0,0,0,63.19,88.62Z"/></g><g id="ebeadcca-3986-4bc1-a45a-9de87d7305b5" data-name="Group 228"><path id="e2c9d4de-e3de-43f7-8174-fd3880416bf4" data-name="Path 400" class="f0fe2030-6e13-49cd-ade2-24d2f74225a4" d="M97.82,90.12c-6.95,0-6.95,11.33,0,11.33a5.68,5.68,0,1,0,.78-11.33A5.08,5.08,0,0,0,97.82,90.12Z"/></g><line id="a7901a0c-cf83-4eb5-9a25-22599806b3d4" data-name="Line 99" class="aa37f47d-c8b9-44c7-923f-482aa66b16fc" x1="72.28" y1="86.95" x2="56.48" y2="78.67"/><line id="e0c38204-f263-4a03-93f1-f081bf12fa3f" data-name="Line 100" class="aa37f47d-c8b9-44c7-923f-482aa66b16fc" x1="90.41" y1="87.45" x2="106.16" y2="81.68"/><path id="a6e81493-40da-460b-96e7-a8a5b1237d7c" data-name="Path 401" class="e2fec3d5-22dd-4cd1-9785-9b12a7cdddb7" d="M48.92,110c-5.48-1.46-22.47,2-22.47,2l16.83,9.21-5,8.47s11.12-4,14.35-7C55.32,120.22,56.87,112.09,48.92,110Z"/><g id="eb991131-6adb-45d2-9cc0-cf200ec810bb" data-name="Group 230"><g class="adefc670-b83c-4cbb-b38a-6e50ab2b1935"><g id="b4094b22-6531-4cd3-9cc6-40412bcd1f31" data-name="Group 229"><path id="e34192b8-3926-4852-8c1c-c4a3ce95b3a0" data-name="Path 402" class="b7adbd36-a4b8-471c-884a-de2d072d9183" d="M52.69,147.09c16.62,24.32,52.43,36.39,84.4,29.28q2-.45,4-1C122,149.43,84.51,141.53,52.69,147.09Z"/></g></g></g><g id="b2329e27-4f96-48fa-8956-931f141020af" data-name="Group 232"><circle id="fe021100-9b17-46b6-acde-6713537c1a9a" data-name="Ellipse 19" class="aadd89c1-6220-4584-a366-fd07bc4c1712" cx="95.62" cy="172.01" r="9.79"/><g id="ae6808fe-468d-43c2-b20a-cb1f2df6c1a3" data-name="Group 231"><path id="bf5983d8-f491-4547-8f75-ccf8d679816a" data-name="Path 404" class="e9cf561f-4a03-44fe-a1ae-f9aa3cba51b9" d="M90.66,175.53a7.23,7.23,0,0,0,7.54-1.48"/><path id="a12274d3-e517-4142-8322-1913b2f09bb5" data-name="Path 405" class="e9cf561f-4a03-44fe-a1ae-f9aa3cba51b9" d="M93,171.19a7.23,7.23,0,0,0,3.25,6.95"/></g></g></g><g id="efa8cf61-f5b1-4d29-8153-47890d5f3282" data-name="Group 235"><g id="a4c61d6a-c246-4f8f-9244-ff112ef42194" data-name="Group 234"><circle id="ee88cab1-464a-40f5-a333-7e08c9d981bd" data-name="Ellipse 20" class="ac08ab18-e1be-4bd7-9bb2-31706fe496c0" cx="83.33" cy="87.42" r="71.51"/><path id="f9ae821c-c2a3-439a-a865-711c5e6b08c3" data-name="Path 406" class="a63ce032-d9fa-4fd6-b0d4-c657b5a47cce" d="M140.66,80a27.56,27.56,0,0,0-9.74-25.46"/></g><path id="fe04cc87-a9f8-4cd4-98c7-73fe2aa0249e" data-name="Path 1557" class="b9f0d727-79c7-4965-a5ef-01b62b05e70d" d="M83.33,15.91A71.51,71.51,0,1,1,11.82,87.42,71.51,71.51,0,0,1,83.33,15.91Z"/></g></g></svg>