<svg id="a521753b-7137-4efe-9973-0a415538ca04" data-name="圖層 2" xmlns="http://www.w3.org/2000/svg" xmlns:xlink="http://www.w3.org/1999/xlink" viewBox="0 0 170 170"><defs><style>.ae125d77-9a4e-4b52-b4f1-58531de8edf6{fill:url(#ba63fa30-bed5-43cb-a84f-7cdd2bbf8bec);}.b20bca97-efd5-472e-a867-4304af259416{fill:url(#b1f7e130-3aff-40bc-86ea-97f35695c450);}.efcc4372-9a83-41c0-b4b3-6e4efba63b00{fill:url(#a80fffc9-efc9-475d-aee8-a0cc7fd8fe1e);}.b29e8948-4058-4b5b-9206-3ab1278ac617{fill:#454c53;}.b3e49197-d97f-4952-aca4-a10246824ea7,.f35ae411-dafe-40a7-a5b0-f7e80fe4a81e{fill:none;stroke-miterlimit:10;}.b3e49197-d97f-4952-aca4-a10246824ea7{stroke:#454c53;stroke-width:3px;}.b3e49197-d97f-4952-aca4-a10246824ea7,.e866784b-49f8-4238-94c9-37db36eaabd5,.f35ae411-dafe-40a7-a5b0-f7e80fe4a81e{stroke-linecap:round;}.e866784b-49f8-4238-94c9-37db36eaabd5{fill:#f29440;stroke-linejoin:round;stroke-width:2px;}.e866784b-49f8-4238-94c9-37db36eaabd5,.f35ae411-dafe-40a7-a5b0-f7e80fe4a81e{stroke:#f29440;}.f45a11bf-c343-4c5e-9938-7ab46ab4a608{fill:url(#f4de218f-8833-4e08-8a49-580b49922444);}.a7022931-3b75-4219-83a5-28ad5d34362d{fill:url(#ffbaa25b-3f2e-444d-86dc-ca5af58f3c44);}.b25381a9-4e10-4df2-bd55-00060142e57a{fill:url(#b40951db-84a8-4387-a911-76dc1ed26bcb);}.f35ae411-dafe-40a7-a5b0-f7e80fe4a81e{stroke-width:0.75px;}</style><linearGradient id="ba63fa30-bed5-43cb-a84f-7cdd2bbf8bec" x1="-3.21" y1="177.07" x2="-3.21" y2="176.65" gradientTransform="matrix(23.34, 0, 0, -38.07, 157.96, 6870)" gradientUnits="userSpaceOnUse"><stop offset="0" stop-color="#f26f40"/><stop offset="1" stop-color="#f29440"/></linearGradient><linearGradient id="b1f7e130-3aff-40bc-86ea-97f35695c450" x1="-4.72" y1="177.94" x2="-4.72" y2="177.56" gradientTransform="matrix(27.36, 0, 0, -42.58, 245.27, 7704.97)" xlink:href="#ba63fa30-bed5-43cb-a84f-7cdd2bbf8bec"/><linearGradient id="a80fffc9-efc9-475d-aee8-a0cc7fd8fe1e" x1="-11.34" y1="183.59" x2="-11.34" y2="182.93" gradientTransform="matrix(111.16, 0, 0, -149.35, 1344.62, 27444.67)" gradientUnits="userSpaceOnUse"><stop offset="0" stop-color="#ffe363"/><stop offset="1" stop-color="#ffcb05"/></linearGradient><linearGradient id="f4de218f-8833-4e08-8a49-580b49922444" x1="-1.77" y1="177.86" x2="-1.77" y2="176.95" gradientTransform="matrix(20.48, 0, 0, -41.82, 104.28, 7527.72)" xlink:href="#ba63fa30-bed5-43cb-a84f-7cdd2bbf8bec"/><linearGradient id="ffbaa25b-3f2e-444d-86dc-ca5af58f3c44" x1="-1.82" y1="177.86" x2="-1.82" y2="176.96" gradientTransform="matrix(20.56, 0, 0, -41.88, 168.42, 7538.65)" xlink:href="#ba63fa30-bed5-43cb-a84f-7cdd2bbf8bec"/><linearGradient id="b40951db-84a8-4387-a911-76dc1ed26bcb" x1="101.76" y1="105.74" x2="91.12" y2="115.44" gradientUnits="userSpaceOnUse"><stop offset="0" stop-color="#ffcb05"/><stop offset="0.58" stop-color="#ffea8a"/></linearGradient></defs><g id="e6e3b186-1a7c-4862-b106-f47b60bab23e" data-name="Group 515"><g id="a63e8912-63d5-407a-9716-fee1d314f288" data-name="Group 509"><path id="a7689dc4-7886-4e0a-9482-a4fa05e39b0a" data-name="Path 659" class="ae125d77-9a4e-4b52-b4f1-58531de8edf6" d="M87.48,151.72a2.74,2.74,0,0,0,.08-.37c.56-4.19,1-8.4,1.55-12.59.43-3.31,1.2-7.66-.11-10.83a1.34,1.34,0,0,0-1.68-.9,1.3,1.3,0,0,0-.76.58c-1.65,3-1.91,7.11-2.49,10.46-.66,3.84-1.4,7.7-1.83,11.57-1.45.78-2.81,1.73-4.31,2.43-1.7.8-3.75.53-5.32,1.51a2.51,2.51,0,0,0-.85,3.44,2.65,2.65,0,0,0,.85.85c2.4,1.27,5.12-.13,7.25-1.38l.9-.57c-.18.89-.34,1.78-.53,2.65a21.44,21.44,0,0,0-.75,3.54,2.61,2.61,0,0,0,.45,1.69l.44.57c.5.45.52.46.38.3l.14.11a2.35,2.35,0,0,0,2.47-.19c1.46-.84,1.4-2.68,1.56-4.14a43.46,43.46,0,0,0,.46-5.92,28.22,28.22,0,0,0,4.84,6.73c2.51,2.38,6.1-1.24,3.78-3.77A36.48,36.48,0,0,0,87.48,151.72Z"/><path id="a08abcba-010a-43a3-ac8a-1ac28fb01927" data-name="Path 660" class="b20bca97-efd5-472e-a867-4304af259416" d="M129.47,155.82c-1.26-2.17-4-1.63-6.16-1.86s-4.35-.41-6.5-.67c0-3.75-1.4-8-1.83-11.49-.67-5.56-1-11.16-1.55-16.73a1.61,1.61,0,0,0-3.22,0,107,107,0,0,0,0,18.6,45.17,45.17,0,0,0,1.06,8.67q-2.3,1.28-4.46,2.78c-.76.51-1.53,1-2.3,1.46a5.08,5.08,0,0,0-1,.88l-.2.23a2.11,2.11,0,0,0-.81,2.23c.73,2.58,4,2.05,5.58.72,1.43-1.2,2.8-2.5,4.13-3.82.17,1.51.43,3,.69,4.5s.42,2.94,1.56,4.12a2.4,2.4,0,0,0,3.39-.05,2.46,2.46,0,0,0,.58-1,6.9,6.9,0,0,0-.53-3.93c-.34-1-.65-2.06-1-3.09a37.32,37.32,0,0,0,5,1.71c2.49.67,5.7,2.07,7.49-.53A2.65,2.65,0,0,0,129.47,155.82Z"/></g><path id="b48a61ae-cdd6-465c-876a-8026d03a61b1" data-name="Path 661" class="efcc4372-9a83-41c0-b4b3-6e4efba63b00" d="M108.48,22.45c1.21-3.27,2.86-6.17,4.44-9.43a2.14,2.14,0,0,0-2.4-3.11c-5,1.49-8,6.25-9.94,11.69-.17,0-.34,0-.52,0-.35-5.63-.34-11.3-.6-16.94,0-.85-1.38-1.12-1.54-.21-.93,5.18-2.3,11.22-3,17.29A43.9,43.9,0,0,0,81,4.39c-1.11-.8-2.29.9-1.41,1.82,4.58,4.82,7.8,10.87,10.27,17.21C69.39,30.36,51,57.29,63,105.6a49.94,49.94,0,0,0,3.92,7l-.37.3c-4,2.49-7.69,5.2-10.75,7.16-.66.41-1.28.84-1.92,1.27a29,29,0,0,1-12.39-.92c-2-.61-3.06,2.21-1.4,3.31a26.9,26.9,0,0,0,4.13,2.22,49,49,0,0,1-14.16,2.81c-1.33.06-2.09,2-.73,2.68a22.41,22.41,0,0,0,9.33,2.23c-1.85,1.74-3.69,3.54-5.57,5.39a3,3,0,0,0,2.08,5c3.82.16,7.47-1.56,11-3.9a79.67,79.67,0,0,0-6,9.09,2.68,2.68,0,0,0,4.19,3.24c7.48-7.14,14.23-14.85,22.06-21.64a104.85,104.85,0,0,1,9.83-7.49,36.18,36.18,0,0,0,19.16,9c22.24,2.92,41.2-16.81,43.4-35.84C141.57,72.72,140.41,29.13,108.48,22.45Z"/><path id="bb52459e-03ea-4183-a809-105983669ae2" data-name="Path 662" class="efcc4372-9a83-41c0-b4b3-6e4efba63b00" d="M108.48,22.45c1.21-3.27,2.86-6.17,4.44-9.43a2.14,2.14,0,0,0-2.4-3.11c-5,1.49-8,6.25-9.94,11.69-.17,0-.34,0-.52,0-.35-5.63-.34-11.3-.6-16.94,0-.85-1.38-1.12-1.54-.21-.93,5.18-2.3,11.22-3,17.29A43.9,43.9,0,0,0,81,4.39c-1.11-.8-2.29.9-1.41,1.82,4.58,4.82,7.8,10.87,10.27,17.21C69.39,30.36,51,57.29,63,105.6a49.94,49.94,0,0,0,3.92,7l-.37.3c-4,2.49-7.69,5.2-10.75,7.16-.66.41-1.28.84-1.92,1.27a29,29,0,0,1-12.39-.92c-2-.61-3.06,2.21-1.4,3.31a26.9,26.9,0,0,0,4.13,2.22,49,49,0,0,1-14.16,2.81c-1.33.06-2.09,2-.73,2.68a22.41,22.41,0,0,0,9.33,2.23c-1.85,1.74-3.69,3.54-5.57,5.39a3,3,0,0,0,2.08,5c3.82.16,7.47-1.56,11-3.9a79.67,79.67,0,0,0-6,9.09,2.68,2.68,0,0,0,4.19,3.24c7.48-7.14,14.23-14.85,22.06-21.64a104.85,104.85,0,0,1,9.83-7.49,36.18,36.18,0,0,0,19.16,9c22.24,2.92,41.2-16.81,43.4-35.84C141.57,72.72,140.41,29.13,108.48,22.45Z"/><g id="b01f2208-15dd-44d2-91b7-6ccafa970c59" data-name="Group 510"><path id="ef82b82c-a871-425a-bfbc-0cbc1d7c6285" data-name="Path 663" class="b29e8948-4058-4b5b-9206-3ab1278ac617" d="M84.86,56.25c-5.55,0-5.55,9,0,9a4.54,4.54,0,0,0,.65-9A3.53,3.53,0,0,0,84.86,56.25Z"/></g><g id="fb867349-9afc-49ed-aa42-7f020da17fd9" data-name="Group 511"><path id="b2beb20e-abe3-4d71-991a-5b6cd8ac1da1" data-name="Path 664" class="b29e8948-4058-4b5b-9206-3ab1278ac617" d="M112.52,57.45c-5.55,0-5.55,9,0,9a4.54,4.54,0,0,0,.64-9A3.42,3.42,0,0,0,112.52,57.45Z"/></g><line id="ef63dddf-007d-476a-b6f6-c5e108f180af" data-name="Line 134" class="b3e49197-d97f-4952-aca4-a10246824ea7" x1="92.12" y1="54.92" x2="79.49" y2="48.31"/><line id="eb157695-4a21-4b06-96c2-2e37f9144270" data-name="Line 135" class="b3e49197-d97f-4952-aca4-a10246824ea7" x1="106.6" y1="55.32" x2="119.18" y2="50.71"/><path id="e4f6b46d-8179-4cbf-b7ea-925abe8cb096" data-name="Path 665" class="e866784b-49f8-4238-94c9-37db36eaabd5" d="M98.52,70.45C94.14,69.28,80.58,72,80.58,72L94,79.37l-4,6.76s8.88-3.2,11.46-5.55C103.63,78.63,104.87,72.14,98.52,70.45Z"/><g id="b67d017a-3938-4c61-8ac9-386d32fcf74b" data-name="Group 512"><path id="fd6fa883-6473-40de-9e7f-eafc603326b1" data-name="Path 666" class="f45a11bf-c343-4c5e-9938-7ab46ab4a608" d="M60.11,88.92c-6.6,2.12,7,33-2.39,39.34,0,0,17.4,7,20-3.93S70.44,85.6,60.11,88.92Z"/><path id="baf80cf1-839f-4904-8028-e289aa1bc33f" data-name="Path 667" class="a7022931-3b75-4219-83a5-28ad5d34362d" d="M138.62,88.56c6.62,2-6.71,33.09,2.76,39.31,0,0-17.33,7.16-20.09-3.74S128.26,85.34,138.62,88.56Z"/></g></g><g id="acec8d71-c194-461f-b68a-6b717c610f7f" data-name="Group 514"><circle id="fea2ba81-eda1-4e52-b8cb-efe28f39f553" data-name="Ellipse 46" class="b25381a9-4e10-4df2-bd55-00060142e57a" cx="97.64" cy="109.5" r="5.23"/><g id="b30bbac6-79b3-4f7b-bff6-52423ee15c4b" data-name="Group 513"><path id="b2f9da8d-ca72-4f5d-8d3a-3c48067467c6" data-name="Path 668" class="f35ae411-dafe-40a7-a5b0-f7e80fe4a81e" d="M94,110.49a3.86,3.86,0,0,0,4,.9"/><path id="ab4ee319-ff88-4965-8a4c-0cffac5e3bd3" data-name="Path 669" class="f35ae411-dafe-40a7-a5b0-f7e80fe4a81e" d="M96.05,108.88a3.84,3.84,0,0,0,.1,4.1"/></g></g></svg>