<svg id="bdfee535-5495-4756-86b6-3993c3769c7e" data-name="圖層 1" xmlns="http://www.w3.org/2000/svg" xmlns:xlink="http://www.w3.org/1999/xlink" viewBox="0 0 100 100"><defs><style>.ae050cc8-005d-482c-8365-c0293bda3c50{fill:#919497;}.f8971af6-c7d7-4467-a8ad-1f06f3bdc16c{clip-path:url(#b69d1815-b453-4b96-b42b-c8466c82d902);}</style><clipPath id="b69d1815-b453-4b96-b42b-c8466c82d902"><path class="ae050cc8-005d-482c-8365-c0293bda3c50" d="M98,49.21c1.44,11.89-12.34,27-37.19,32.5-19.6,4.35-41.93-4.86-48.12-22C7,44,17.66,20,40.78,23.06s20.3,31.85,28.58,27.05S96.35,35.89,98,49.21Z"/></clipPath></defs><g id="e1b98d1b-8fdd-499c-b8f6-81fef12e7ffa" data-name="Group 255"><g id="fd9f5b70-5d87-4c71-875b-df5f89c94f9e" data-name="Group 205"><g id="ebaa6059-86c6-4be7-a2cf-7a7d6231ba42" data-name="Group 197"><path id="a6d0253d-a0b9-48e2-a033-4c0ee4ad069e" data-name="Path 310" class="ae050cc8-005d-482c-8365-c0293bda3c50" d="M53.47,76.73a28,28,0,0,0,1.77,6.79,13.1,13.1,0,0,0,1.93,3.32,3.93,3.93,0,0,0,2,1.27c.5-.2,1-.39,1.48-.59.9-.39,2-1.4,3-1.24a1.08,1.08,0,0,1,.91,1.14c0,1.17-1.5,1.91-2.5,2.27l.13,0c.9.17,1.79-.21,2.67,0a.93.93,0,0,1,.78,1,1.16,1.16,0,0,1-.16.4c-1.07,1.54-3.6.95-5.25-.12a9.06,9.06,0,0,0,.49.77A12,12,0,0,0,63,93.66a1.06,1.06,0,0,1,.17,1.49,1.08,1.08,0,0,1-.92.39,5.28,5.28,0,0,1-4-4.81c-2.08-.49-3.78-3.12-4.59-4.8a13.9,13.9,0,0,1-1.2-9.33C52.65,76.12,53.41,76.26,53.47,76.73Z"/><path id="f99d0796-bd5d-4572-9844-a68ac4af4798" data-name="Path 311" class="ae050cc8-005d-482c-8365-c0293bda3c50" d="M63.8,77.68c.11-.18.38-.05.36.14a12.64,12.64,0,0,0,1.93,6.82,8.12,8.12,0,0,0,6.11,4.52l0,0a4.06,4.06,0,0,0,1.45-.62c.76-.56,1.07-1.52,1.81-2.1a1,1,0,0,1,1.58.63,3.88,3.88,0,0,1-2.6,3.68,8.27,8.27,0,0,1,3.76.34.93.93,0,0,1,.18,1.3h0a3.87,3.87,0,0,1-4.66.21c.48.65,1.07,1.19,1.59,1.82,1,1.2-.64,2.66-1.84,1.86a7.44,7.44,0,0,1-2.72-4.87c-2.45-.19-4.73-2.92-5.86-4.75C63.48,84.3,62.09,80.26,63.8,77.68Z"/></g><path id="b60525ce-e150-4693-ac73-7d4d4e0b0734" data-name="Path 312" class="ae050cc8-005d-482c-8365-c0293bda3c50" d="M38.27,24.16A5.83,5.83,0,0,1,39.45,24a5.14,5.14,0,0,1,2.78.75c4-4.32,8.7-9.55,8.6-12.55-.12-3.56-1.76-4.32-3.29-3.56-3.46,1.71-4.5,4.74-5.5,8.17a12.71,12.71,0,0,0-.58,1.6,63.71,63.71,0,0,0-.41-9.16C40.66,6.38,38.6,4.15,36.21,7c-2.72,3.24-.85,9.05.31,12.51C36.78,20.27,37.59,22.49,38.27,24.16Z"/><path id="afb812fa-4db9-4891-bae1-5aaaa31e745f" data-name="Path 313" class="ae050cc8-005d-482c-8365-c0293bda3c50" d="M34.34,3.59h-.06l.07-.12A.57.57,0,0,0,34.34,3.59Z"/><g id="fdd78952-f951-48e2-bee5-31c1ffa9653a" data-name="Group 198"><path id="bd410102-8e9e-4101-bcbd-622b9ee833c7" data-name="Path 314" class="ae050cc8-005d-482c-8365-c0293bda3c50" d="M74.16,60.58s33.6-3.92,21.38,10.91S61,86.07,41.25,81.25s32-20.67,32-20.67"/><path id="a7122300-cedf-413a-ab18-3abd42ecdb04" data-name="Path 315" class="ae050cc8-005d-482c-8365-c0293bda3c50" d="M98,49.21c1.44,11.89-12.34,27-37.19,32.5-19.6,4.35-41.93-4.86-48.12-22C7,44,17.66,20,40.78,23.06s20.3,31.85,28.58,27.05S96.35,35.89,98,49.21Z"/><path id="f80fe772-5381-42b3-a120-472eb0af1c28" data-name="Path 316" class="ae050cc8-005d-482c-8365-c0293bda3c50" d="M68.72,70a8.4,8.4,0,0,0-3.66.33.91.91,0,0,0,0,1.75,8.4,8.4,0,0,0,3.66.33,1.26,1.26,0,0,0,.84-1.57A1.24,1.24,0,0,0,68.72,70Z"/><path id="fed28692-6a67-411c-ac90-3863c2888797" data-name="Path 317" class="ae050cc8-005d-482c-8365-c0293bda3c50" d="M65.3,64.43a20.89,20.89,0,0,1-4.6.48c-.66-.1-1.21.84-.49,1.18a6.4,6.4,0,0,0,5.64.4A1.11,1.11,0,0,0,66.22,65,1.08,1.08,0,0,0,65.3,64.43Z"/><path id="a4d8019d-a3eb-47ce-bda9-1db7f2b72cf0" data-name="Path 318" class="ae050cc8-005d-482c-8365-c0293bda3c50" d="M71.82,56.36c-.89.48-1.45,1.43-2.44,1.76a.77.77,0,0,0,0,1.48,3.74,3.74,0,0,0,4.13-1.54,1.24,1.24,0,0,0-1.69-1.7Z"/><path id="b3276c0f-38b0-4c66-a5fc-84b3070334e6" data-name="Path 319" class="ae050cc8-005d-482c-8365-c0293bda3c50" d="M76.4,62.45a10.38,10.38,0,0,0-1.59.73,3,3,0,0,1-1.66.07c-.92-.15-1.65,1.14-.68,1.61a4.14,4.14,0,0,0,5.12-.37,1.24,1.24,0,0,0,0-1.74A1.22,1.22,0,0,0,76.4,62.45Z"/><path id="bf3d433f-e547-4d9e-92f1-42ce9ce3a787" data-name="Path 320" class="ae050cc8-005d-482c-8365-c0293bda3c50" d="M78,69.14c-1.33.24-2.52,1-3.88,1.24-1.09.18-.68,1.66.24,1.77A8.49,8.49,0,0,0,79,71.52C80.39,70.82,79.34,68.89,78,69.14Z"/><path id="e43a24ff-7e3e-421e-86bb-28b25fa3b829" data-name="Path 321" class="ae050cc8-005d-482c-8365-c0293bda3c50" d="M86.67,58.27a9.58,9.58,0,0,1-1.09,1.67,5.6,5.6,0,0,1-.77.77c-.17.14-.23.36-.36.52a1.32,1.32,0,0,1-.47.34c-.76.41-.21,1.48.56,1.33.36-.07.72-.18,1.08-.22a3,3,0,0,0,1.53-.86,4.78,4.78,0,0,0,1.66-2.65C89.09,57.92,87.3,57,86.67,58.27Z"/><path id="aea5c9d4-7dba-4150-b3b7-ba86bb00e8d5" data-name="Path 322" class="ae050cc8-005d-482c-8365-c0293bda3c50" d="M82.43,51.62c-.41.75-.65,1.54-1.12,2.27s-1,1.42-1.47,2.19.67,1.71,1.28,1c1.25-1.48,3.34-2.72,3.41-4.86a1.13,1.13,0,0,0-2.1-.58Z"/><path id="ad41db4b-8df0-41a6-9661-d7e2434416b6" data-name="Path 323" class="ae050cc8-005d-482c-8365-c0293bda3c50" d="M91.06,47c-1.6.45-1.93,2.86-1.75,4.24.1.75,1.32,1.11,1.47.21a4.55,4.55,0,0,1,.52-1.53c.32-.58,1-.9,1.09-1.57A1.1,1.1,0,0,0,91.61,47,1.28,1.28,0,0,0,91.06,47Z"/></g><g id="bd8225d3-9c60-44e1-aad2-4c82197a022e" data-name="Group 199"><path id="f56d4ef7-2220-4767-973b-943994d8ea97" data-name="Path 324" class="ae050cc8-005d-482c-8365-c0293bda3c50" d="M21.27,35.23c-3.69,0-3.69,6,0,6a3,3,0,0,0,.44-6Z"/></g><g id="a3768256-aba6-4e1f-a56d-689480f81e5f" data-name="Group 200"><path id="abcc0554-c1a0-4d05-b855-b299e1e8292a" data-name="Path 325" class="ae050cc8-005d-482c-8365-c0293bda3c50" d="M39.64,36c-3.68,0-3.68,6,0,6a3,3,0,0,0,.45-6Z"/></g><line id="b0987a1a-7924-4f30-afe8-466e93bab722" data-name="Line 96" class="ae050cc8-005d-482c-8365-c0293bda3c50" x1="35.72" y1="34.62" x2="44.07" y2="31.55"/><path id="f22e46c1-e017-44b1-b5e0-edeab7001e14" data-name="Path 326" class="ae050cc8-005d-482c-8365-c0293bda3c50" d="M13.71,46.57c-2.92-.78-11.93,1-11.93,1l8.93,4.89L8.07,57a34.93,34.93,0,0,0,7.61-3.68,4,4,0,0,0-2-6.73Z"/><g id="e64a06c3-b9c1-4e90-bacb-542b5436fa56" data-name="Group 202"><path class="ae050cc8-005d-482c-8365-c0293bda3c50" d="M98,49.21c1.44,11.89-12.34,27-37.19,32.5-19.6,4.35-41.93-4.86-48.12-22C7,44,17.66,20,40.78,23.06s20.3,31.85,28.58,27.05S96.35,35.89,98,49.21Z"/><g class="f8971af6-c7d7-4467-a8ad-1f06f3bdc16c"><g id="a1b426d6-7002-4970-9db2-32a733eb82d2" data-name="Group 201"><path id="be496ac1-b3d9-4633-af43-730b65854db4" data-name="Path 327" class="ae050cc8-005d-482c-8365-c0293bda3c50" d="M15.7,66.27c8.82,12.9,27.83,19.31,44.79,15.53l2.13-.5C52.49,67.5,32.59,63.31,15.7,66.27Z"/></g></g></g><g id="a16e419a-08c1-490a-bff3-5ed0984de05d" data-name="Group 204"><circle id="a2f698e2-6768-4274-a02b-6b6f56b74300" data-name="Ellipse 9" class="ae050cc8-005d-482c-8365-c0293bda3c50" cx="38.48" cy="79.49" r="5.19"/><g id="b6812dd9-9b9f-448b-bb91-0f9624cdb014" data-name="Group 203"><path id="ae0289a7-4313-4c34-982c-b3b9ed10b5cb" data-name="Path 329" class="ae050cc8-005d-482c-8365-c0293bda3c50" d="M35.85,81.35a3.82,3.82,0,0,0,4-.78"/><path id="a5652f3c-d79f-49fc-afaf-7a43422bd4ce" data-name="Path 330" class="ae050cc8-005d-482c-8365-c0293bda3c50" d="M37.11,79.05a3.84,3.84,0,0,0,1.72,3.69"/></g></g></g></g></svg>