<svg id="bae8e287-408d-4ccf-ab49-44b5fcb1cc8d" data-name="圖層 1" xmlns="http://www.w3.org/2000/svg" xmlns:xlink="http://www.w3.org/1999/xlink" viewBox="0 0 100 100"><defs><style>.a8f05f31-10c7-4e9c-80c2-7a12376959a8{fill:none;}.a414736e-927e-4b47-91b7-bad1b0aff719{fill:#dfdfdf;}.a8be45d9-3281-4eeb-8377-94ee81a78e41{clip-path:url(#a176bffe-78a4-4e38-9dc2-2469012c6131);}</style><clipPath id="a176bffe-78a4-4e38-9dc2-2469012c6131"><path class="a8f05f31-10c7-4e9c-80c2-7a12376959a8" d="M98,49.21c1.44,11.89-12.34,27-37.19,32.5-19.6,4.35-41.93-4.86-48.12-22C7,44,17.66,20,40.78,23.06s20.3,31.85,28.58,27.05S96.35,35.89,98,49.21Z"/></clipPath></defs><g id="be5035d0-6b1c-42c1-889e-7a02c0984cf3" data-name="Group 255"><g id="b8ad4fc3-14d0-4819-9b4e-6419439f47e8" data-name="Group 205"><g id="f24ccd25-25cb-4ef8-bcba-7c83049a5e28" data-name="Group 197"><path id="bf438010-3a79-4574-a808-894fd64f1eb0" data-name="Path 310" class="a414736e-927e-4b47-91b7-bad1b0aff719" d="M53.47,76.73a28,28,0,0,0,1.77,6.79,13.1,13.1,0,0,0,1.93,3.32,3.93,3.93,0,0,0,2,1.27c.5-.2,1-.39,1.48-.59.9-.39,2-1.4,3-1.24a1.08,1.08,0,0,1,.91,1.14c0,1.17-1.5,1.91-2.5,2.27l.13,0c.9.17,1.79-.21,2.67,0a.93.93,0,0,1,.78,1,1.16,1.16,0,0,1-.16.4c-1.07,1.54-3.6.95-5.25-.12a9.06,9.06,0,0,0,.49.77A12,12,0,0,0,63,93.66a1.06,1.06,0,0,1,.17,1.49,1.08,1.08,0,0,1-.92.39,5.28,5.28,0,0,1-4-4.81c-2.08-.49-3.78-3.12-4.59-4.8a13.9,13.9,0,0,1-1.2-9.33C52.65,76.12,53.41,76.26,53.47,76.73Z"/><path id="ae5fa2ad-fc59-4b6c-9678-3c8d382133c2" data-name="Path 311" class="a414736e-927e-4b47-91b7-bad1b0aff719" d="M63.8,77.68c.11-.18.38-.05.36.14a12.64,12.64,0,0,0,1.93,6.82,8.12,8.12,0,0,0,6.11,4.52l0,0a4.06,4.06,0,0,0,1.45-.62c.76-.56,1.07-1.52,1.81-2.1a1,1,0,0,1,1.58.63,3.88,3.88,0,0,1-2.6,3.68,8.27,8.27,0,0,1,3.76.34.93.93,0,0,1,.18,1.3h0a3.87,3.87,0,0,1-4.66.21c.48.65,1.07,1.19,1.59,1.82,1,1.2-.64,2.66-1.84,1.86a7.44,7.44,0,0,1-2.72-4.87c-2.45-.19-4.73-2.92-5.86-4.75C63.48,84.3,62.09,80.26,63.8,77.68Z"/></g><path id="ac5079cf-9e04-498e-a052-0fed123500c2" data-name="Path 312" class="a414736e-927e-4b47-91b7-bad1b0aff719" d="M38.27,24.16A5.83,5.83,0,0,1,39.45,24a5.14,5.14,0,0,1,2.78.75c4-4.32,8.7-9.55,8.6-12.55-.12-3.56-1.76-4.32-3.29-3.56-3.46,1.71-4.5,4.74-5.5,8.17a12.71,12.71,0,0,0-.58,1.6,63.71,63.71,0,0,0-.41-9.16C40.66,6.38,38.6,4.15,36.21,7c-2.72,3.24-.85,9.05.31,12.51C36.78,20.27,37.59,22.49,38.27,24.16Z"/><path id="b907b53e-a442-4214-a1df-5c519837d9cc" data-name="Path 313" class="a414736e-927e-4b47-91b7-bad1b0aff719" d="M34.34,3.59h-.06l.07-.12A.57.57,0,0,0,34.34,3.59Z"/><g id="aa80aa68-6e62-4fea-b16a-c67f7f8c88d9" data-name="Group 198"><path id="a969d8fe-88bf-45e8-a83b-219aa09d89b3" data-name="Path 314" class="a414736e-927e-4b47-91b7-bad1b0aff719" d="M74.16,60.58s33.6-3.92,21.38,10.91S61,86.07,41.25,81.25s32-20.67,32-20.67"/><path id="a3b2d6a9-3cb3-4997-b06b-d8f3c621e65d" data-name="Path 315" class="a414736e-927e-4b47-91b7-bad1b0aff719" d="M98,49.21c1.44,11.89-12.34,27-37.19,32.5-19.6,4.35-41.93-4.86-48.12-22C7,44,17.66,20,40.78,23.06s20.3,31.85,28.58,27.05S96.35,35.89,98,49.21Z"/><path id="a00fde32-3696-45ec-8939-664a19b4b3d5" data-name="Path 316" class="a414736e-927e-4b47-91b7-bad1b0aff719" d="M68.72,70a8.4,8.4,0,0,0-3.66.33.91.91,0,0,0,0,1.75,8.4,8.4,0,0,0,3.66.33,1.26,1.26,0,0,0,.84-1.57A1.24,1.24,0,0,0,68.72,70Z"/><path id="b58c95c1-7893-4c83-8b17-4f735d092488" data-name="Path 317" class="a414736e-927e-4b47-91b7-bad1b0aff719" d="M65.3,64.43a20.89,20.89,0,0,1-4.6.48c-.66-.1-1.21.84-.49,1.18a6.4,6.4,0,0,0,5.64.4A1.11,1.11,0,0,0,66.22,65,1.08,1.08,0,0,0,65.3,64.43Z"/><path id="f989572e-f529-44f4-8404-291f76a488b0" data-name="Path 318" class="a414736e-927e-4b47-91b7-bad1b0aff719" d="M71.82,56.36c-.89.48-1.45,1.43-2.44,1.76a.77.77,0,0,0,0,1.48,3.74,3.74,0,0,0,4.13-1.54,1.24,1.24,0,0,0-1.69-1.7Z"/><path id="aa394d69-e7ac-48a6-acc5-83777b7ee874" data-name="Path 319" class="a414736e-927e-4b47-91b7-bad1b0aff719" d="M76.4,62.45a10.38,10.38,0,0,0-1.59.73,3,3,0,0,1-1.66.07c-.92-.15-1.65,1.14-.68,1.61a4.14,4.14,0,0,0,5.12-.37,1.24,1.24,0,0,0,0-1.74A1.22,1.22,0,0,0,76.4,62.45Z"/><path id="af1a010c-a666-48ac-866c-911c92f8e05d" data-name="Path 320" class="a414736e-927e-4b47-91b7-bad1b0aff719" d="M78,69.14c-1.33.24-2.52,1-3.88,1.24-1.09.18-.68,1.66.24,1.77A8.49,8.49,0,0,0,79,71.52C80.39,70.82,79.34,68.89,78,69.14Z"/><path id="f01a4506-cf19-4daa-80dc-2c04f8934eb9" data-name="Path 321" class="a414736e-927e-4b47-91b7-bad1b0aff719" d="M86.67,58.27a9.58,9.58,0,0,1-1.09,1.67,5.6,5.6,0,0,1-.77.77c-.17.14-.23.36-.36.52a1.32,1.32,0,0,1-.47.34c-.76.41-.21,1.48.56,1.33.36-.07.72-.18,1.08-.22a3,3,0,0,0,1.53-.86,4.78,4.78,0,0,0,1.66-2.65C89.09,57.92,87.3,57,86.67,58.27Z"/><path id="a8bf567f-14cf-4221-bb2e-1f29b0831937" data-name="Path 322" class="a414736e-927e-4b47-91b7-bad1b0aff719" d="M82.43,51.62c-.41.75-.65,1.54-1.12,2.27s-1,1.42-1.47,2.19.67,1.71,1.28,1c1.25-1.48,3.34-2.72,3.41-4.86a1.13,1.13,0,0,0-2.1-.58Z"/><path id="b5394b2c-f8f8-4078-8f2d-cfc43d76f917" data-name="Path 323" class="a414736e-927e-4b47-91b7-bad1b0aff719" d="M91.06,47c-1.6.45-1.93,2.86-1.75,4.24.1.75,1.32,1.11,1.47.21a4.55,4.55,0,0,1,.52-1.53c.32-.58,1-.9,1.09-1.57A1.1,1.1,0,0,0,91.61,47,1.28,1.28,0,0,0,91.06,47Z"/></g><g id="a881f449-1845-4c6f-9f4e-5506ebd13a6a" data-name="Group 199"><path id="b83dd589-6d3b-4570-a954-478ae4dc7b65" data-name="Path 324" class="a414736e-927e-4b47-91b7-bad1b0aff719" d="M21.27,35.23c-3.69,0-3.69,6,0,6a3,3,0,0,0,.44-6Z"/></g><g id="f5e5c126-0bee-4542-81cb-83b0c6160613" data-name="Group 200"><path id="b69f12b1-0bc7-4eaa-a4c8-626a87adf0b4" data-name="Path 325" class="a414736e-927e-4b47-91b7-bad1b0aff719" d="M39.64,36c-3.68,0-3.68,6,0,6a3,3,0,0,0,.45-6Z"/></g><line id="ae0d9a2b-a6d2-45ea-9db1-ec3fd9b082cd" data-name="Line 95" class="a8f05f31-10c7-4e9c-80c2-7a12376959a8" x1="26.1" y1="34.35" x2="17.71" y2="29.96"/><line id="aa838afd-1fa9-4dc6-be26-848bc4f8ef0e" data-name="Line 96" class="a8f05f31-10c7-4e9c-80c2-7a12376959a8" x1="35.72" y1="34.62" x2="44.07" y2="31.55"/><path id="aaff47c6-e7db-4429-bb00-27b68f3f73b6" data-name="Path 326" class="a414736e-927e-4b47-91b7-bad1b0aff719" d="M13.71,46.57c-2.92-.78-11.93,1-11.93,1l8.93,4.89L8.07,57a34.93,34.93,0,0,0,7.61-3.68,4,4,0,0,0-2-6.73Z"/><g id="b3312616-4f21-4816-b81c-ea960bc6a6e8" data-name="Group 202"><g class="a8be45d9-3281-4eeb-8377-94ee81a78e41"><g id="b1447080-cd61-47d7-be2e-6dbd19858fec" data-name="Group 201"><path id="a17584be-4119-4ff2-8e2c-688611eefd47" data-name="Path 327" class="a414736e-927e-4b47-91b7-bad1b0aff719" d="M15.7,66.27c8.82,12.9,27.83,19.31,44.79,15.53l2.13-.5C52.49,67.5,32.59,63.31,15.7,66.27Z"/></g></g></g><g id="a19864b0-4c60-4e42-8437-9126784412d7" data-name="Group 204"><circle id="ae4dd059-9ff2-4d99-8dcd-4d76fe2896ec" data-name="Ellipse 9" class="a414736e-927e-4b47-91b7-bad1b0aff719" cx="38.48" cy="79.49" r="5.19"/><g id="e710dcd3-60fc-45b4-8793-c585f1994bdd" data-name="Group 203"><path id="a72c7211-1e8d-44bd-9f35-b1415ee11fec" data-name="Path 329" class="a8f05f31-10c7-4e9c-80c2-7a12376959a8" d="M35.85,81.35a3.82,3.82,0,0,0,4-.78"/><path id="a68acb44-bfb8-4404-9a97-ddb5a8d53146" data-name="Path 330" class="a8f05f31-10c7-4e9c-80c2-7a12376959a8" d="M37.11,79.05a3.84,3.84,0,0,0,1.72,3.69"/></g></g></g></g></svg>