<svg id="a8068272-e7b7-4356-9b1f-1804b7f573af" data-name="Capa 1" xmlns="http://www.w3.org/2000/svg" viewBox="0 0 297 250.92"><defs><style>.ee32ff6e-5dbf-4e62-905e-0dd0f567ecf4{fill:#454c53;}</style></defs><path class="ee32ff6e-5dbf-4e62-905e-0dd0f567ecf4" d="M148.5,250.92a10.28,10.28,0,0,1-4.59-1.08,410.11,410.11,0,0,1-71.1-47.38C52,185.11,35.34,167.17,23.32,149.15,7.85,125.94,0,102.46,0,79.38a79.37,79.37,0,0,1,148.5-39,79.37,79.37,0,0,1,148.5,39c0,23.08-7.85,46.56-23.32,69.77-12,18-28.67,36-49.49,53.31a410.11,410.11,0,0,1-71.1,47.38A10.28,10.28,0,0,1,148.5,250.92Z"/></svg>