<svg id="a3e04f90-579d-479e-9d13-d6742a195abb" data-name="圖層 1" xmlns="http://www.w3.org/2000/svg" xmlns:xlink="http://www.w3.org/1999/xlink" viewBox="0 0 200 130"><defs><style>.a3cbdfc1-d757-4b2e-9313-fbf752ee0ecc,.bd9c82cc-7030-4aeb-892b-d8e8ab833247,.eb1fff51-251c-4ae8-a323-276cee145ee8{fill:none;}.be98fb24-0fcb-4450-863d-b06974738083,.f3473835-1c36-4cf5-ae2c-383c15e21e2b{isolation:isolate;}.f3473835-1c36-4cf5-ae2c-383c15e21e2b{font-size:24px;font-family:FredokaOne-Regular, Fredoka One;}.a0b35713-afd7-4303-8c7b-e85c961e94c6,.f3473835-1c36-4cf5-ae2c-383c15e21e2b{fill:#454c53;}.e90cb0c1-a6de-4f26-998a-4581cdcddc4a{fill:url(#b8b82ee0-24d1-4aea-b1f7-18536a1b61a8);}.e62ce778-4c66-4020-8181-8cb08a651d5e{fill:url(#facc64e0-b061-427b-8687-a835fb0f87c1);}.a8886ba1-ba42-43e1-9be5-a5b48c410f25{fill:url(#bc539b60-ad85-4817-86e2-0e7d9b590f51);}.a9876ca1-be9c-4aac-9835-0a529e834949{fill:#c79be7;}.b88280b7-421c-4616-9d2b-53e6597564b1{fill:url(#bac078a0-277d-4faa-9245-8d416b85919a);}.aade5199-0ffd-4fa0-a3b9-b8bf520ec4bf{fill:url(#a0da412d-92ea-4021-8575-192d051fbba2);}.ace98787-997e-42fa-bb3c-985ade9a2694,.fcbbfa85-b656-493f-a48e-1107b3b3ce10{fill:#f29440;}.a3cbdfc1-d757-4b2e-9313-fbf752ee0ecc{stroke:#454c53;stroke-width:3px;}.a3cbdfc1-d757-4b2e-9313-fbf752ee0ecc,.ace98787-997e-42fa-bb3c-985ade9a2694,.eb1fff51-251c-4ae8-a323-276cee145ee8{stroke-linecap:round;}.a3cbdfc1-d757-4b2e-9313-fbf752ee0ecc,.eb1fff51-251c-4ae8-a323-276cee145ee8{stroke-miterlimit:10;}.ace98787-997e-42fa-bb3c-985ade9a2694,.eb1fff51-251c-4ae8-a323-276cee145ee8{stroke:#f29440;}.ace98787-997e-42fa-bb3c-985ade9a2694{stroke-linejoin:round;stroke-width:2px;}.b3104eec-e984-45b8-88c9-317662d7146a{clip-path:url(#f6cc687d-ba49-44ce-b549-aef5a2069788);}.b34e5798-8c67-499d-b7a0-97003746f868{fill:#ffea8a;}.b3fa4746-2681-4290-bcb7-562db2aef05a{fill:url(#b61727e3-797a-432a-a22c-79ab59c4b5a4);}.eb1fff51-251c-4ae8-a323-276cee145ee8{stroke-width:0.75px;}</style><linearGradient id="b8b82ee0-24d1-4aea-b1f7-18536a1b61a8" x1="14.21" y1="147.2" x2="14.24" y2="146.82" gradientTransform="matrix(16.5, 0, 0, -23.47, -150.75, 3556.91)" gradientUnits="userSpaceOnUse"><stop offset="0" stop-color="#f26f40"/><stop offset="1" stop-color="#f29440"/></linearGradient><linearGradient id="facc64e0-b061-427b-8687-a835fb0f87c1" x1="12.44" y1="147.4" x2="12.54" y2="146.71" gradientTransform="matrix(19.01, 0, 0, -23.05, -140, 3490.41)" xlink:href="#b8b82ee0-24d1-4aea-b1f7-18536a1b61a8"/><linearGradient id="bc539b60-ad85-4817-86e2-0e7d9b590f51" x1="12.44" y1="147.23" x2="12.04" y2="146.73" gradientTransform="matrix(19.52, 0, 0, -23.29, -174.86, 3441.19)" gradientUnits="userSpaceOnUse"><stop offset="0" stop-color="#666c72"/><stop offset="1" stop-color="#454c53"/></linearGradient><linearGradient id="bac078a0-277d-4faa-9245-8d416b85919a" x1="4.22" y1="150.34" x2="4.44" y2="149.64" gradientTransform="matrix(74.89, 0, 0, -29.34, -227.88, 4494.38)" gradientUnits="userSpaceOnUse"><stop offset="0" stop-color="#f2564d"/><stop offset="1" stop-color="#f29440"/></linearGradient><linearGradient id="a0da412d-92ea-4021-8575-192d051fbba2" x1="3.17" y1="157.91" x2="3.61" y2="157.33" gradientTransform="matrix(105.89, 0, 0, -73.08, -290.06, 11581.24)" gradientUnits="userSpaceOnUse"><stop offset="0" stop-color="#ffe363"/><stop offset="1" stop-color="#ffcb05"/></linearGradient><clipPath id="f6cc687d-ba49-44ce-b549-aef5a2069788"><path class="bd9c82cc-7030-4aeb-892b-d8e8ab833247" d="M131.54,64c1.74,14.49-15,32.86-45.31,39.6C62.35,109,35.14,97.72,27.6,76.84,20.68,57.7,33.7,28.46,61.88,32.19S86.6,71,96.7,65.14,129.58,47.82,131.54,64Z"/></clipPath><linearGradient id="b61727e3-797a-432a-a22c-79ab59c4b5a4" x1="-14.96" y1="133.6" x2="-13.96" y2="133.6" gradientTransform="matrix(12.66, 0, 0, -12.66, -169.86, 1791.78)" gradientUnits="userSpaceOnUse"><stop offset="0" stop-color="#ffcb05"/><stop offset="0.58" stop-color="#ffea8a"/></linearGradient></defs><g id="f3a09dcc-4ef6-4fbd-87d7-58235f6d16b3" data-name="新ICON"><g id="aeaa68ad-f2af-4e57-a8f4-361ba1fac653" data-name="Joinnn " class="be98fb24-0fcb-4450-863d-b06974738083"><text class="f3473835-1c36-4cf5-ae2c-383c15e21e2b" transform="translate(95.84 46.26)">Joinnn !</text></g><g id="bd71c836-6426-44ac-bd43-da68c40bdb9c" data-name="Group 666"><g id="f202553e-4e7d-4891-8c36-cc099a5d2405" data-name="Group 664"><g id="a123e98b-8e28-47ba-aed1-07535d4ab30f" data-name="啾啾鳥"><g id="af60623f-d0d4-41cc-bb11-155495ba06cd" data-name="Group 205"><g id="bc8ae48d-969a-4129-92fd-0d52b570cbd9" data-name="Group 197"><path id="ad60f46e-00dd-4f71-ae13-7b849f5dc48c" data-name="Path 310" class="e90cb0c1-a6de-4f26-998a-4581cdcddc4a" d="M77.34,97.58a33.71,33.71,0,0,0,2.16,8.27,16.19,16.19,0,0,0,2.34,4.05,4.94,4.94,0,0,0,2.5,1.55c.6-.27,1.23-.48,1.8-.73,1.1-.47,2.39-1.71,3.63-1.5a1.29,1.29,0,0,1,1.1,1.39c0,1.42-1.82,2.34-3,2.77l.15,0c1.1.2,2.18-.25,3.25,0a1.13,1.13,0,0,1,1,1.27,1,1,0,0,1-.2.5c-1.29,1.89-4.38,1.16-6.39-.14a8.32,8.32,0,0,0,.6.94A14.42,14.42,0,0,0,89,118.24a1.28,1.28,0,0,1-.92,2.28c-2.72-.39-4.5-3.2-4.82-5.86-2.53-.6-4.6-3.8-5.6-5.85-1.6-3.3-2.51-7.8-1.45-11.37C76.34,96.84,77.26,97,77.34,97.58Z"/><path id="b1a4d11a-6458-49a4-96fa-0b60c045bc9a" data-name="Path 311" class="e62ce778-4c66-4020-8181-8cb08a651d5e" d="M89.92,98.73c.14-.22.46-.06.44.18-.21,3,1,5.66,2.35,8.3a9.89,9.89,0,0,0,7.45,5.5l.06,0A4.72,4.72,0,0,0,102,112c.93-.68,1.3-1.85,2.22-2.55a1.2,1.2,0,0,1,1.91.77c.22,1.91-1.31,3.71-3.16,4.48,1.56.07,3.27-.34,4.57.41a1.13,1.13,0,0,1,.22,1.59h0c-1.18,1.46-3.8,1.27-5.68.24.59.8,1.31,1.46,1.94,2.22,1.2,1.46-.78,3.24-2.24,2.26a9,9,0,0,1-3.31-5.93c-3-.23-5.77-3.56-7.14-5.79C89.52,106.79,87.84,101.87,89.92,98.73Z"/></g><path id="adbb5dd1-1d99-4669-aba5-5073fe3b7ed3" data-name="Path 312" class="a8886ba1-ba42-43e1-9be5-a5b48c410f25" d="M58.81,33.53a7.06,7.06,0,0,1,1.45-.14,6.2,6.2,0,0,1,3.38.91C68.55,29,74.24,22.66,74.12,19c-.15-4.33-2.14-5.26-4-4.34-4.22,2.08-5.49,5.79-6.71,10a17.52,17.52,0,0,0-.71,1.95,76.94,76.94,0,0,0-.49-11.15c-.47-3.55-3-6.27-5.9-2.8-3.31,4-1,11,.38,15.25C57,28.78,58,31.49,58.81,33.53Z"/><path id="b016b723-c19b-4581-b9ce-1e3b4f7c210e" data-name="Path 313" class="a9876ca1-be9c-4aac-9835-0a529e834949" d="M54,8.46l-.07,0c0-.06.06-.1.08-.15S54,8.42,54,8.46Z"/><g id="b8bb66c2-9a4b-43b1-9bb6-58a194928ed5" data-name="Group 198"><path id="e42a2bb3-4470-4961-bc3f-facffe14be1d" data-name="Path 314" class="b88280b7-421c-4616-9d2b-53e6597564b1" d="M102.55,77.9s40.93-4.78,26,13.29S86.53,109,62.44,103.08s39-25.18,39-25.18"/><path id="b5cd231d-1b02-4101-b1f8-e699d62bd2ba" data-name="Path 315" class="aade5199-0ffd-4fa0-a3b9-b8bf520ec4bf" d="M131.54,64c1.74,14.49-15,32.86-45.31,39.6C62.35,109,35.14,97.72,27.6,76.84,20.68,57.7,33.7,28.46,61.88,32.19S86.6,71,96.7,65.14,129.58,47.82,131.54,64Z"/><path id="b56bea77-9cfa-4c19-b6ad-5131ab3bf8d9" data-name="Path 316" class="fcbbfa85-b656-493f-a48e-1107b3b3ce10" d="M95.91,89.42a10.37,10.37,0,0,0-4.46.41,1.1,1.1,0,0,0-.74,1.38,1.09,1.09,0,0,0,.74.75,10.21,10.21,0,0,0,4.46.4,1.54,1.54,0,0,0,1-1.91A1.56,1.56,0,0,0,95.91,89.42Z"/><path id="fe24eeb6-713a-4aac-a4bb-c56fa56d299c" data-name="Path 317" class="fcbbfa85-b656-493f-a48e-1107b3b3ce10" d="M91.74,82.58c-1.91.13-3.63.89-5.59.59-.81-.13-1.49,1-.61,1.44,2,1,4.84,1.67,6.88.48a1.35,1.35,0,0,0,.45-1.86A1.39,1.39,0,0,0,91.74,82.58Z"/><path id="fa66dc1f-4464-47d2-bd47-a5f920e8fbfc" data-name="Path 318" class="fcbbfa85-b656-493f-a48e-1107b3b3ce10" d="M99.68,72.76c-1.08.58-1.77,1.74-3,2.14a1,1,0,0,0-.63,1.18,1,1,0,0,0,.63.63,4.55,4.55,0,0,0,5-1.89,1.52,1.52,0,0,0-.6-2.06A1.53,1.53,0,0,0,99.68,72.76Z"/><path id="b2026b9c-bc7b-4be9-8a0f-0995eb8d90d4" data-name="Path 319" class="fcbbfa85-b656-493f-a48e-1107b3b3ce10" d="M105.27,80.18a14,14,0,0,0-1.93.88,3.69,3.69,0,0,1-2,.09c-1.12-.18-2,1.39-.83,2,1.92.94,4.7,1.47,6.24-.46a1.5,1.5,0,0,0-.06-2.11A1.48,1.48,0,0,0,105.27,80.18Z"/><path id="a224812e-197c-4654-b3d8-63c4a320d5c3" data-name="Path 320" class="fcbbfa85-b656-493f-a48e-1107b3b3ce10" d="M107.19,88.32c-1.62.29-3.06,1.23-4.72,1.51-1.33.22-.83,2,.3,2.16a10.33,10.33,0,0,0,5.65-.76C110.14,90.38,108.86,88,107.19,88.32Z"/><path id="e510c6c7-ed86-4b29-a658-c248927410d8" data-name="Path 321" class="fcbbfa85-b656-493f-a48e-1107b3b3ce10" d="M117.78,75.08a11.48,11.48,0,0,1-1.32,2,7,7,0,0,1-.95.93c-.2.17-.27.44-.43.64a1.54,1.54,0,0,1-.57.41c-.92.51-.27,1.8.68,1.62.44-.09.87-.21,1.32-.27a3.75,3.75,0,0,0,1.86-1,5.77,5.77,0,0,0,2-3.23C120.73,74.66,118.55,73.59,117.78,75.08Z"/><path id="b956ae35-46ee-4f81-a6d7-3dde28084a0f" data-name="Path 322" class="fcbbfa85-b656-493f-a48e-1107b3b3ce10" d="M112.61,67c-.51.91-.79,1.88-1.36,2.76s-1.27,1.72-1.8,2.66.82,2.09,1.56,1.2c1.53-1.81,4.07-3.32,4.16-5.92a1.39,1.39,0,0,0-2.56-.7Z"/><path id="e37370aa-02b8-475a-8399-ef409c62ca2d" data-name="Path 323" class="fcbbfa85-b656-493f-a48e-1107b3b3ce10" d="M123.14,61.35c-2,.55-2.36,3.49-2.13,5.17.12.92,1.6,1.35,1.79.24a5.61,5.61,0,0,1,.63-1.86c.39-.7,1.17-1.09,1.33-1.92a1.33,1.33,0,0,0-1-1.63A1.47,1.47,0,0,0,123.14,61.35Z"/></g><g id="b3f4d406-3b1b-4bcd-8623-fdc32decc994" data-name="Group 199"><path id="ac07f449-39ab-499e-951d-962a3ff1ed99" data-name="Path 324" class="a0b35713-afd7-4303-8c7b-e85c961e94c6" d="M38.11,47c-4.5,0-4.5,7.33,0,7.33A3.67,3.67,0,0,0,38.62,47Z"/></g><g id="e74ae710-0ac0-4637-8e59-4a1e65df582a" data-name="Group 200"><path id="ff1a0145-c080-494e-8c08-5afe0f5f02ea" data-name="Path 325" class="a0b35713-afd7-4303-8c7b-e85c961e94c6" d="M60.49,48c-4.49,0-4.49,7.32,0,7.32A3.67,3.67,0,0,0,61,48,4.51,4.51,0,0,0,60.49,48Z"/></g><line id="e0c07c5e-80df-41e3-b509-08de32bfd73d" data-name="Line 95" class="a3cbdfc1-d757-4b2e-9313-fbf752ee0ecc" x1="43.98" y1="45.94" x2="33.76" y2="40.58"/><line id="b7a2c126-ed6c-43b0-a8de-e137c88fe9c4" data-name="Line 96" class="a3cbdfc1-d757-4b2e-9313-fbf752ee0ecc" x1="55.71" y1="46.26" x2="65.89" y2="42.53"/><path id="b3d7a716-2e57-41dd-8439-e86fefc23622" data-name="Path 326" class="ace98787-997e-42fa-bb3c-985ade9a2694" d="M28.88,60.82c-3.55-.94-14.53,1.27-14.53,1.27l10.88,6L22,73.52s7.19-2.59,9.28-4.49C33,67.45,34,62.19,28.88,60.82Z"/><g id="f1af7fe1-525b-47a9-9191-da4d80a3b4ba" data-name="Group 202"><g class="b3104eec-e984-45b8-88c9-317662d7146a"><g id="bc1decb1-6211-4219-955b-028f04ecce27" data-name="Group 201"><path id="a2160ec4-5f33-44db-b2d7-2d4d2c507879" data-name="Path 327" class="b34e5798-8c67-499d-b7a0-97003746f868" d="M31.31,84.83c10.75,15.72,33.9,23.52,54.58,18.93.88-.2,1.74-.4,2.6-.62C76.14,86.33,51.89,81.23,31.31,84.83Z"/></g></g></g><g id="a74ae729-143c-40a0-b906-013a9501bf5f" data-name="Group 204"><circle id="b365900f-9fef-497f-947e-9211476cf05d" data-name="Ellipse 9" class="b3fa4746-2681-4290-bcb7-562db2aef05a" cx="59.07" cy="100.94" r="6.33"/><g id="bc1f9349-c08c-4af7-bfb7-9420ac110d8f" data-name="Group 203"><path id="bd1fe724-233b-4d85-9ffa-63281078048a" data-name="Path 329" class="eb1fff51-251c-4ae8-a323-276cee145ee8" d="M55.87,103.21a4.67,4.67,0,0,0,4.87-1"/><path id="bd4a3fb2-509c-46a2-8038-7b63c476b955" data-name="Path 330" class="eb1fff51-251c-4ae8-a323-276cee145ee8" d="M57.4,100.41a4.68,4.68,0,0,0,2.1,4.5"/></g></g></g></g></g></g></g></svg>