<svg id="e2b6de4c-c32b-44ca-8d2c-3cd694e05213" data-name="圖層 1" xmlns="http://www.w3.org/2000/svg" xmlns:xlink="http://www.w3.org/1999/xlink" viewBox="0 0 1920 100"><defs><style>.f4b7c15e-57d7-4093-b991-e9ac9041d8e1,.f5c8430f-4ce0-4a18-a0d0-95e0f1b1dfcd{fill:none;}.b08aac7f-23c6-418d-a82d-662be83a963d{clip-path:url(#e9639c58-591f-4e46-8e0e-b88b715ecb4d);}.f99581a0-83bb-4ac0-9065-1a8fbe16a1c5{clip-path:url(#b50c69f8-2cc4-49c7-b808-61a8edeb0c3a);}.e26e44ca-36ba-4524-b819-78c93ef9fe98{fill:#7ebfcb;}.b6237196-3584-4823-abcc-242d42fa82de{fill:#efab63;}.e733e32f-7ea5-49e6-9842-d04964dbe0e8{fill:#f4c41e;}.f4b7c15e-57d7-4093-b991-e9ac9041d8e1{stroke:#fff;stroke-miterlimit:10;stroke-width:2px;}</style><clipPath id="e9639c58-591f-4e46-8e0e-b88b715ecb4d"><rect id="ae8d13d1-bd4b-4b47-9861-13c94ac7e708" data-name="Rectangle 57" class="f5c8430f-4ce0-4a18-a0d0-95e0f1b1dfcd" width="1920" height="100"/></clipPath><clipPath id="b50c69f8-2cc4-49c7-b808-61a8edeb0c3a"><rect class="f5c8430f-4ce0-4a18-a0d0-95e0f1b1dfcd" x="-0.1" y="-2.92" width="2372.9" height="986.47"/></clipPath></defs><g class="b08aac7f-23c6-418d-a82d-662be83a963d"><g id="f688861c-ad78-41b8-8044-303a897033cf" data-name="Group 247"><g class="f99581a0-83bb-4ac0-9065-1a8fbe16a1c5"><g id="a281405b-eac5-4ad7-a217-21df24aed654" data-name="Group 246"><rect id="a65edc00-356f-4f8c-8fe2-3c70a84aa000" data-name="Rectangle 54" class="e26e44ca-36ba-4524-b819-78c93ef9fe98" x="-0.1" y="-2.91" width="2372.9" height="986.47"/><g id="a6833cef-c0b6-443d-8189-71e059237976" data-name="Group 245"><g id="a3fd9074-912e-4e01-b5de-cf02bfc901d8" data-name="Group 244"><g id="ae4c2f23-136b-490e-b679-cc3b65960038" data-name="Group 242"><path id="b5c983bc-3b03-4a4d-8e38-aef81a909ad0" data-name="Path 412" class="b6237196-3584-4823-abcc-242d42fa82de" d="M2528.15,133.35s-1065.27-19.68-1088.94-12.3S1238.81,3.19,1238.81,3.19l-65.92-154s390.6-100.88,449.78-97.19,926.19,94.73,979.46,99.65S2528.15,133.35,2528.15,133.35Z"/><path id="a2c7887e-40d1-4d91-a83f-034f3b32c62b" data-name="Path 413" class="e733e32f-7ea5-49e6-9842-d04964dbe0e8" d="M115.86-266.35c191.6,96.65,568.71,54.61,709.91,179.89C872.3-45.17,892.62,1.7,923.24,46.38c38.83,56.67,96.11,111.25,185.87,153s215,69.72,348,67.36c111.52-2,218.8-24.38,325.06-43.38,194.33-34.75,389.85-35.93,565.18,9.7,67.43,17.55,126,41.39,172.79,69.51l178-217.67c-14.63-5.11-30.08-9.77-45.76-14-153.12-41.39-338.47-54.18-520.53-42.6-172.94,11-349.24,37.86-521.56,24.47C1549.21,48,1489.16,37.66,1447,17.83c-73.32-34.46-38.34-74.16-33.57-118,2.5-22.91-6.32-45.64-24.94-66.25L-.1-362.69C32.77-328.77,62-293.5,115.86-266.35Z"/></g><g id="bc30e369-68da-4a60-a6d5-eb106db4584c" data-name="Group 243"><path id="a315094e-db6f-47b1-9c65-8ff177e618bf" data-name="Path 414" class="f4b7c15e-57d7-4093-b991-e9ac9041d8e1" d="M2681.91-10.59c-162.5,8.94-299.94,54.1-457.25,73.24-74,9-153.11,12.1-228.5,5.44s-146.73-23.61-192.41-49.42C1750.31-11.52,1735.86-50.48,1695.68-84,1619.8-147.41,1444.4-187.53,1275-180.26"/><path id="f645b1cd-00c2-4f6b-8403-3d5d0c6e8ecc" data-name="Path 415" class="f4b7c15e-57d7-4093-b991-e9ac9041d8e1" d="M2338.91,132.12c-147.65-17.67-306.49-3-450.94,18.8s-284,50.66-435,62.44-321.82,3.4-432.47-40.91c-78.4-31.4-116.13-76.21-142.8-120.08S832.07-36.93,781.1-76.92c-103.59-81.26-344.27-127.8-560.5-108.39"/></g></g></g></g></g></g></g></svg>